<svg width="97" height="96" viewBox="0 0 97 96" fill="none" xmlns="http://www.w3.org/2000/svg">
<g clip-path="url(#clip0_1_47)">
<path d="M96.9937 48.0445C96.9546 58.7683 93.727 68.4499 87.1936 76.9249C79.6275 86.7377 69.6633 92.7813 57.5087 95.1553C53.6674 95.901 49.7471 96.1544 45.8419 95.9095C35.1988 95.2534 25.6772 91.6335 17.4412 84.8011C9.28497 78.044 3.92226 69.5092 1.35306 59.1966C0.235554 54.7098 -0.194384 50.0787 0.0779903 45.4623C0.690685 34.8788 4.37438 25.449 11.2059 17.3587C18.5823 8.62578 27.9398 3.1583 39.1655 0.918514C43.2228 0.105941 47.3689 -0.169409 51.4977 0.0995225C62.1408 0.790311 71.6459 4.49915 79.8352 11.3678C87.8409 18.0796 93.1178 26.526 95.6659 36.7068C96.6042 40.4111 97.0507 44.2232 96.9937 48.0445ZM48.5396 3.78272C46.483 3.73542 44.4261 3.85953 42.3901 4.15376C36.3444 4.99839 30.6661 6.92898 25.4258 10.0918C16.9309 15.2199 10.7302 22.3511 6.95462 31.55C4.29911 38.0205 3.35222 44.7625 3.92577 51.7367C4.20778 55.3113 4.94488 58.835 6.11913 62.2222C8.84088 70.0059 13.3706 76.5418 19.7083 81.8298C27.2383 88.0966 35.9259 91.4827 45.6492 92.1433C50.303 92.4686 54.9788 92.0449 59.4989 90.8884C69.1334 88.4209 77.1692 83.3863 83.4346 75.6459C90.3123 67.1462 93.5795 57.4073 93.2362 46.4291C93.0979 41.9119 92.2474 37.445 90.7162 33.194C88.0065 25.6406 83.5445 19.2983 77.3965 14.1898C69.0416 7.2623 59.3845 3.834 48.5396 3.78272Z" fill="#A6A6A6"/>
<path d="M31.7156 54.3326C30.8545 55.5694 29.9001 56.6463 28.5543 57.3205C24.8751 59.1666 19.6424 57.8996 17.1976 54.5724C14.1642 50.4427 14.0528 43.4278 16.886 39.2061C19.5957 35.17 24.5891 34.1549 28.3616 35.6164C28.8885 35.82 29.1564 36.081 29.1143 36.7114C29.0481 37.7265 29.0962 38.7506 29.0962 39.906C28.0809 39.2297 26.8811 38.886 25.6624 38.9226C23.2809 38.9407 21.4278 40.1292 20.5682 42.5273C19.4723 45.5906 19.394 48.6705 21.0936 51.6041C23.1123 55.0867 28.3194 55.1259 30.427 51.6871C31.3603 50.1652 31.7578 48.4986 31.7743 46.7414C31.8054 43.3006 31.8079 39.8592 31.7819 36.4173C31.7819 35.7522 31.9429 35.5591 32.6128 35.5938C33.8171 35.6541 35.0215 35.6285 36.2258 35.5938C36.6623 35.5832 36.7722 35.7295 36.7722 36.1488C36.7557 43.3599 36.8053 50.5694 36.721 57.779C36.6879 60.6296 35.8028 63.2193 33.3836 65.0187C31.7698 66.2253 29.8971 66.7758 27.9356 66.9402C25.6097 67.1363 23.2689 67.1423 21.0213 66.3626C18.3447 65.4395 16.4103 63.7985 15.7524 60.9071C15.623 60.3295 15.6124 59.9765 16.4163 60.0308C17.6206 60.1093 18.8249 60.0489 20.0292 60.0519C20.2912 60.0519 20.5727 59.9765 20.6901 60.3642C21.3179 62.4395 22.9843 63.079 24.8902 63.3113C26.187 63.4816 27.5058 63.3389 28.7364 62.895C30.4315 62.2721 31.3287 60.9856 31.6373 59.2752C31.9264 57.6493 31.7713 55.9947 31.7156 54.3326Z" fill="#76B11A"/>
<path d="M54.3492 54.2933C53.4956 55.785 52.7219 57.144 51.9406 58.4969C51.7976 58.7412 51.5567 58.6477 51.3294 58.6266C48.9524 58.3445 46.9833 57.3627 45.6269 55.3008C45.3771 55.4713 45.4885 55.7141 45.4869 55.9132C45.4869 59.1786 45.4674 62.4455 45.4869 65.717C45.4869 66.2886 45.3756 66.4937 44.7493 66.459C43.5726 66.3912 42.3929 66.3912 41.2161 66.459C40.5523 66.4998 40.5011 66.2373 40.5026 65.6944C40.5166 57.5024 40.5197 49.3115 40.5116 41.1216C40.5116 39.4625 40.5222 37.8034 40.5026 36.1443C40.5026 35.7024 40.6004 35.5214 41.0882 35.541C42.2398 35.5772 43.396 35.5817 44.5506 35.541C45.1407 35.5184 45.3229 35.6918 45.3168 36.2951C45.2897 39.7113 45.3003 43.1291 45.3078 46.5514C45.3078 48.586 45.5968 50.5377 46.7906 52.2828C48.1771 54.3069 50.1115 54.9615 52.4524 54.7473C53.044 54.6809 53.601 54.4607 54.3492 54.2933Z" fill="#76B11A"/>
<path d="M70.0219 42.0115C71.1193 43.657 72.8475 43.8335 74.4598 44.2196C76.2828 44.6585 78.1374 44.9737 79.9108 45.6102C81.9777 46.3538 83.6999 47.4714 84.2764 49.7746C85.0382 52.7911 83.7134 55.7941 80.9254 57.1877C77.031 59.1364 73.0086 59.2269 68.9937 57.6568C66.7145 56.7654 65.2302 55.046 64.7033 52.5935C64.6185 52.2786 64.583 51.9525 64.5979 51.6267C64.6431 51.1742 64.8328 50.8469 65.4093 50.865C66.5865 50.9012 67.7653 50.8846 68.944 50.865C69.2646 50.865 69.4664 50.9223 69.5175 51.2783C69.8367 53.5151 71.4234 54.5196 73.54 54.7473C74.8139 54.8937 76.104 54.798 77.3426 54.4653C78.6387 54.1078 79.42 53.3024 79.5028 52.2557C79.5992 51.0385 79.0512 50.1184 77.7596 49.5558C76.0735 48.8243 74.243 48.5951 72.4741 48.1501C71.0169 47.7851 69.5657 47.4186 68.1988 46.7686C67.6659 46.5152 67.5078 46.2769 67.8706 45.7037C68.6218 44.5258 69.2842 43.292 70.0219 42.0115Z" fill="#5E605F"/>
<path d="M57.9682 48.0067C57.8673 46.7005 57.8673 45.42 57.5165 44.1802C56.8767 41.8937 55.8124 39.9043 53.3707 39.1426C52.5568 38.879 51.6963 38.7915 50.8462 38.8859C49.996 38.9803 49.1756 39.2544 48.439 39.6901C48.2885 39.7746 48.1485 39.9616 47.9874 39.8877C47.7586 39.7851 47.8775 39.5332 47.876 39.3507C47.8655 38.4216 47.9001 37.4895 47.864 36.5619C47.8474 36.1095 48.0025 35.8636 48.3999 35.7067C52.8754 33.936 59.1032 35.0129 61.6473 40.8484C61.7146 40.9822 61.7456 41.1312 61.7375 41.2808C61.7293 41.4303 61.6821 41.5751 61.6007 41.7006C60.3853 43.7991 59.1745 45.9012 57.9682 48.0067Z" fill="#76B11A"/>
<path d="M71.6748 39.1367C72.4742 37.7401 73.1802 36.5048 73.8877 35.2665C73.9232 35.1863 73.9815 35.1184 74.0555 35.0714C74.1295 35.0244 74.2157 35.0004 74.3032 35.0026C77.1635 35.0327 79.8416 35.5531 81.9356 37.7175C82.9291 38.7446 83.4124 40.0236 83.6698 41.4067C83.736 41.7581 83.6698 41.9135 83.2708 41.909C81.8422 41.8939 80.4106 41.8984 78.982 41.909C78.6809 41.909 78.5409 41.7958 78.4521 41.5032C77.9267 39.7612 76.5809 39.1171 74.9249 38.9527C73.8386 38.8456 72.7422 38.9076 71.6748 39.1367Z" fill="#5E605F"/>
</g>
<defs>
<clipPath id="clip0_1_47">
<rect width="97" height="96" fill="white"/>
</clipPath>
</defs>
</svg>
