<?xml version="1.0" encoding="UTF-8" standalone="no"?>
<svg width="609px" height="221px" viewBox="0 0 609 221" version="1.1" xmlns="http://www.w3.org/2000/svg" xmlns:xlink="http://www.w3.org/1999/xlink" xmlns:sketch="http://www.bohemiancoding.com/sketch/ns">
    <title>Slice 1</title>
    <description>Created with Sketch (http://www.bohemiancoding.com/sketch)</description>
    <defs></defs>
    <g id="Page-1" stroke="none" stroke-width="1" fill="none" fill-rule="evenodd" sketch:type="MSPage">
        <g id="UVA_LidkoÃàpingAB_BLAÃä_CMYK" sketch:type="MSLayerGroup" transform="translate(0.000000, 1.000000)" fill="#007099">
            <path d="M92.915,52.122 C109.836,31.028 135.818,17.5 164.901,17.5 C194.092,17.5 219.625,31.282 236.936,52.19 C237.249,52.568 237.786,52.852 238.315,52.852 L258.333,52.852 C258.863,52.852 259.062,52.446 258.813,52.062 C238.664,20.918 204.636,-0.5 164.901,-0.5 C125.281,-0.5 90.821,20.723 71.04,51.97 C70.622,52.629 71.114,52.852 71.53,52.852 L91.317,52.852 C91.965,52.852 92.521,52.629 92.915,52.122" id="Fill-1" sketch:type="MSShapeGroup"></path>
            <path d="M368.59,67.051 C368.59,63.573 371.409,60.753 374.888,60.753 C378.365,60.753 381.185,63.573 381.185,67.051 C381.185,70.529 378.365,73.348 374.888,73.348 C371.409,73.348 368.59,70.529 368.59,67.051" id="Fill-2" sketch:type="MSShapeGroup"></path>
            <path d="M401.768,67.051 C401.768,70.529 398.947,73.348 395.47,73.348 C391.992,73.348 389.173,70.529 389.173,67.051 C389.173,63.573 391.992,60.753 395.47,60.753 C398.947,60.753 401.768,63.573 401.768,67.051" id="Fill-3" sketch:type="MSShapeGroup"></path>
            <path d="M213.731,142.548 C211.126,143.156 203.569,143.764 198.966,143.764 C187.675,143.764 178.902,140.724 178.902,125.959 L178.902,80.272 C178.902,79.316 179.684,78.535 180.639,78.535 L189.238,78.535 C190.193,78.535 190.975,79.316 190.975,80.272 L190.975,125.959 C190.975,131.691 192.712,133.428 197.75,133.428 L213.731,133.428 C214.687,133.428 215.469,134.21 215.469,135.165 L215.469,140.724 C215.469,141.94 215.035,142.288 213.731,142.548" id="Fill-4" sketch:type="MSShapeGroup"></path>
            <path d="M235.504,143.069 L226.906,143.069 C225.95,143.069 225.168,142.288 225.168,141.333 L225.168,80.185 C225.168,79.23 225.95,78.535 226.906,78.535 L235.504,78.535 C236.46,78.535 237.242,79.23 237.242,80.185 L237.242,141.333 C237.242,142.288 236.46,143.069 235.504,143.069" id="Fill-5" sketch:type="MSShapeGroup"></path>
            <path d="M354.807,143.069 L343.167,143.069 C342.124,143.069 341.603,142.809 341.17,142.114 L321.278,112.496 L321.278,141.333 C321.278,142.288 320.496,143.069 319.542,143.069 L310.942,143.069 C309.988,143.069 309.206,142.288 309.206,141.333 L309.206,80.272 C309.206,79.316 309.988,78.622 310.942,78.622 L319.542,78.622 C320.496,78.622 321.278,79.316 321.278,80.272 L321.278,107.893 L342.56,79.316 C342.993,78.709 343.602,78.622 344.557,78.622 L354.459,78.622 C355.587,78.622 356.108,79.056 356.108,79.664 C356.108,80.098 355.849,80.619 355.501,81.053 L333.266,109.803 L355.675,141.246 C355.935,141.68 356.108,142.027 356.108,142.288 C356.108,142.809 355.675,143.069 354.807,143.069" id="Fill-6" sketch:type="MSShapeGroup"></path>
            <path d="M397.773,104.939 C397.773,93.474 393.691,88.35 385.18,88.35 C376.667,88.35 372.584,93.474 372.584,104.939 L372.584,116.665 C372.584,128.129 376.667,133.254 385.18,133.254 C393.691,133.254 397.773,128.129 397.773,116.665 L397.773,104.939 L397.773,104.939 Z M385.18,143.764 C370.849,143.764 360.425,135.773 360.425,116.665 L360.425,104.939 C360.425,85.831 370.849,77.84 385.18,77.84 C399.511,77.84 409.933,85.831 409.933,104.939 L409.933,116.665 C409.933,135.773 399.511,143.764 385.18,143.764 L385.18,143.764 Z" id="Fill-7" sketch:type="MSShapeGroup"></path>
            <path d="M487.385,143.069 L478.786,143.069 C477.83,143.069 477.049,142.288 477.049,141.333 L477.049,80.185 C477.049,79.23 477.83,78.535 478.786,78.535 L487.385,78.535 C488.34,78.535 489.122,79.23 489.122,80.185 L489.122,141.333 C489.122,142.288 488.34,143.069 487.385,143.069" id="Fill-8" sketch:type="MSShapeGroup"></path>
            <path d="M547.937,143.069 L539.164,143.069 C537.078,143.069 535.255,143.069 533.865,139.943 L514.583,97.643 C514.323,97.122 514.063,96.948 513.801,96.948 C513.541,96.948 513.367,97.122 513.367,97.643 L513.367,141.333 C513.367,142.288 512.673,143.069 511.718,143.069 L504.335,143.069 C503.379,143.069 502.598,142.288 502.598,141.333 L502.598,82.009 C502.598,80.098 504.161,78.535 506.071,78.535 L515.452,78.535 C517.276,78.535 518.231,79.056 519.273,81.314 L539.512,125.959 C539.686,126.393 539.945,126.654 540.206,126.654 C540.38,126.654 540.64,126.393 540.64,125.872 L540.64,80.185 C540.64,79.23 541.335,78.535 542.291,78.535 L549.76,78.535 C550.716,78.535 551.411,79.23 551.411,80.185 L551.411,139.595 C551.411,141.506 549.848,143.069 547.937,143.069" id="Fill-9" sketch:type="MSShapeGroup"></path>
            <path d="M606.364,142.288 C602.021,143.156 596.375,143.764 587.429,143.764 C578.049,143.764 564.151,137.597 564.151,117.099 L564.151,104.591 C564.151,84.007 577.354,77.84 587.69,77.84 C596.028,77.84 603.498,78.882 606.364,79.403 C607.493,79.664 608.015,80.098 608.015,81.227 L608.015,87.047 C608.015,88.263 607.667,88.871 606.277,88.871 L606.017,88.871 C602.021,88.523 596.028,88.176 587.69,88.176 C581.87,88.176 576.312,92.258 576.312,104.591 L576.312,117.099 C576.312,129.433 582.304,133.428 587.429,133.428 C590.643,133.428 593.336,133.341 596.028,133.167 L596.028,111.019 C596.028,110.063 596.723,109.282 597.679,109.282 L606.277,109.282 C607.232,109.282 608.015,110.063 608.015,111.019 L608.015,140.203 C608.015,141.333 607.493,142.027 606.364,142.288" id="Fill-11" sketch:type="MSShapeGroup"></path>
            <path d="M106.314,80.676 L92.07,135.134 C89.985,143.212 83.732,143.993 79.997,143.993 C76.262,143.993 70.008,143.212 67.923,135.134 L53.679,80.676 C53.679,80.502 53.592,80.414 53.592,80.24 C53.592,79.372 54.287,78.764 55.156,78.764 L64.363,78.764 C65.144,78.764 65.839,79.459 66.013,80.24 L78.607,132.441 C78.868,133.484 79.128,133.831 79.997,133.831 C80.865,133.831 81.126,133.484 81.386,132.441 L93.981,80.24 C94.155,79.459 94.85,78.764 95.63,78.764 L104.837,78.764 C105.707,78.764 106.401,79.372 106.401,80.24 C106.401,80.414 106.314,80.502 106.314,80.676" id="Fill-13" sketch:type="MSShapeGroup"></path>
            <path d="M158.199,141.387 L143.954,86.929 C141.869,78.851 135.615,78.069 131.881,78.069 C128.146,78.069 121.892,78.851 119.808,86.929 L105.563,141.387 C105.563,141.562 105.477,141.735 105.477,141.823 C105.477,142.691 106.171,143.299 107.04,143.299 L116.247,143.299 C116.995,143.299 117.65,142.659 117.859,141.92 L130.491,89.622 C130.751,88.579 131.012,88.232 131.881,88.232 C132.749,88.232 133.01,88.579 133.271,89.622 L139.524,115.418 C139.524,115.418 132.993,115.42 131.881,115.418 C130.77,115.417 130.422,115.65 130.202,116.598 C129.982,117.545 128.574,123.599 128.458,124.198 C128.302,125.004 128.772,125.319 129.636,125.319 L141.869,125.319 L145.865,141.823 C146.038,142.604 146.733,143.299 147.515,143.299 L156.722,143.299 C157.591,143.299 158.286,142.691 158.286,141.823 C158.286,141.735 158.199,141.562 158.199,141.387" id="Fill-14" sketch:type="MSShapeGroup"></path>
            <path d="M23.116,143.993 C9.132,143.993 0,137.914 0,119.414 L0,80.414 C0,79.459 0.782,78.764 1.737,78.764 L10.336,78.764 C11.292,78.764 12.073,79.459 12.073,80.414 L12.073,119.414 C12.073,129.315 13.735,134.005 23.116,134.005 C32.496,134.005 34.251,129.315 34.251,119.414 L34.251,80.414 C34.251,79.459 35.033,78.764 35.988,78.764 L44.586,78.764 C45.542,78.764 46.323,79.459 46.323,80.414 L46.323,119.414 C46.323,137.914 37.1,143.993 23.116,143.993" id="Fill-16" sketch:type="MSShapeGroup"></path>
            <path d="M270.639,77.84 C264.473,77.84 256.134,78.448 253.529,78.882 C252.053,79.143 251.271,79.837 251.271,81.575 L251.271,140.029 C251.271,141.767 252.053,142.461 253.529,142.722 C255.077,142.98 258.331,143.281 262.27,143.498 C263.11,143.516 263.342,143 263.343,142.47 L263.343,88.263 C265.168,88.176 267.426,88.002 270.639,88.002 C279.325,88.002 285.926,91.389 285.926,104.418 L285.926,117.186 C285.926,130.215 279.325,133.602 270.639,133.602 C270.511,133.602 270.385,133.595 270.26,133.601 C269.561,133.635 269.413,134.158 269.413,134.419 C269.413,134.629 269.402,140.492 269.413,142.818 C269.416,143.604 269.881,143.764 270.405,143.764 L270.639,143.764 C288.011,143.764 297.913,134.384 297.913,117.186 L297.913,104.418 C297.913,87.22 288.011,77.84 270.639,77.84" id="Fill-18" sketch:type="MSShapeGroup"></path>
            <path d="M441.03,77.84 C434.69,77.84 428.523,78.274 424.007,78.969 C422.269,79.23 421.227,79.837 421.227,81.575 L421.227,141.333 C421.227,142.288 422.009,143.069 422.965,143.069 L431.649,143.069 C432.604,143.069 433.301,142.288 433.301,141.333 L433.301,88.176 C434.864,88.002 439.205,87.828 441.03,87.828 C449.715,87.828 454.059,90.607 454.059,97.904 L454.059,98.686 C454.059,105.634 450.411,109.108 441.03,109.108 C440.943,109.108 441.817,109.042 440.732,109.106 C439.647,109.171 439.499,109.734 439.427,110.455 C439.339,111.336 439.423,116.895 439.427,117.806 C439.431,118.718 439.951,119.065 440.688,119.008 C440.806,118.999 440.92,119.01 441.03,119.01 C454.406,119.01 466.046,114.059 466.046,98.686 L466.046,97.904 C466.046,82.53 454.406,77.84 441.03,77.84" id="Fill-19" sketch:type="MSShapeGroup"></path>
            <path d="M236.886,167.378 C219.966,188.472 193.983,202 164.9,202 C135.71,202 110.176,188.218 92.866,167.311 C92.552,166.933 92.016,166.648 91.487,166.648 L71.469,166.648 C70.939,166.648 70.74,167.054 70.989,167.438 C91.138,198.582 125.166,220 164.9,220 C204.52,220 238.981,198.776 258.762,167.53 C259.179,166.871 258.688,166.648 258.271,166.648 L238.485,166.648 C237.837,166.648 237.281,166.871 236.886,167.378" id="Fill-21" sketch:type="MSShapeGroup"></path>
        </g>
    </g>
</svg>