<?xml version="1.0" encoding="UTF-8"?>
<svg version="1.1" xmlns="http://www.w3.org/2000/svg" width="1600" height="900">
<path d="M0 0 C528 0 1056 0 1600 0 C1600 297 1600 594 1600 900 C1072 900 544 900 0 900 C0 603 0 306 0 0 Z " fill="#FEFEFE" transform="translate(0,0)"/>
<path d="M0 0 C0 3.98038803 -1.8950476 5.941955 -4.1875 9 C-5.11513456 10.26687421 -6.04081679 11.53517959 -6.96484375 12.8046875 C-7.45968262 13.48370117 -7.95452148 14.16271484 -8.46435547 14.86230469 C-11.12771209 18.5698326 -13.68487349 22.3491587 -16.25 26.125 C-20.78490592 32.784699 -25.36861801 39.40703864 -30 46 C-38.04178816 57.45563977 -45.93340416 69.01130037 -53.796875 80.58984375 C-59.55186437 89.05790986 -65.31051461 97.51282706 -71.30029297 105.81689453 C-76.44861592 112.97545456 -81.38161177 120.28297727 -86.34423828 127.57080078 C-88.45087449 130.66148647 -90.56499247 133.74701003 -92.67919922 136.83251953 C-96.88201888 142.96625851 -101.07495731 149.10637317 -105.24609375 155.26171875 C-118.25809376 174.45815125 -118.25809376 174.45815125 -123.25 181.375 C-128.74318297 188.98738046 -134.01667552 196.74615408 -139.30029297 204.50488281 C-142.15391386 208.69390975 -145.01388949 212.87858605 -147.875 217.0625 C-148.42647705 217.86905029 -148.9779541 218.67560059 -149.54614258 219.5065918 C-152.69423063 224.10616765 -155.87006786 228.68420533 -159.078125 233.2421875 C-161.82671382 237.18630072 -164.53729061 241.1561534 -167.25 245.125 C-167.81388428 245.94983887 -168.37776855 246.77467773 -168.95874023 247.62451172 C-170.0954232 249.28740373 -171.2320608 250.95032675 -172.36865234 252.61328125 C-178.43775272 261.49258764 -184.526312 270.35310332 -190.75 279.125 C-197.38227433 288.47750905 -203.81699033 297.96259353 -210.26171875 307.44482422 C-212.68735013 311.01036607 -215.12115811 314.57019905 -217.5625 318.125 C-217.99675293 318.75736572 -218.43100586 319.38973145 -218.87841797 320.04125977 C-221.3081859 323.57016602 -223.75833238 327.08381748 -226.2265625 330.5859375 C-233.60056403 341.05321225 -240.80149444 351.61493543 -247.84643555 362.30664062 C-248.49008057 363.28052734 -249.13372559 364.25441406 -249.796875 365.2578125 C-250.36760742 366.1255127 -250.93833984 366.99321289 -251.52636719 367.88720703 C-253 370 -253 370 -255 372 C-257.13870239 372.24050903 -257.13870239 372.24050903 -259.81689453 372.22705078 C-260.81778107 372.22689972 -261.8186676 372.22674866 -262.84988403 372.22659302 C-264.47493362 372.21110916 -264.47493362 372.21110916 -266.1328125 372.1953125 C-267.23978485 372.1924826 -268.3467572 372.18965271 -269.48727417 372.18673706 C-273.03329137 372.17551519 -276.57905875 372.15040691 -280.125 372.125 C-282.52473594 372.1149728 -284.92447583 372.1058465 -287.32421875 372.09765625 C-293.21624253 372.07556928 -299.10807887 372.0410257 -305 372 C-305.99 369.03 -306.98 366.06 -308 363 C-309.65 363 -311.3 363 -313 363 C-313.33 361.35 -313.66 359.7 -314 358 C-313.01 357.67 -312.02 357.34 -311 357 C-311.66 355.02 -312.32 353.04 -313 351 C-312.34 350.34 -311.68 349.68 -311 349 C-310.83312552 346.41645782 -310.83312552 346.41645782 -311 344 C-313.31 343.34 -315.62 342.68 -318 342 C-318 341.01 -318 340.02 -318 339 C-318.59167969 339.06960938 -319.18335938 339.13921875 -319.79296875 339.2109375 C-324.41410045 339.52755664 -326.3537533 339.50407243 -330.125 336.5625 C-332.51679158 333.09852599 -332.24616327 330.09410666 -331.6875 326.05078125 C-330.88505971 323.65713835 -329.9729788 322.5537208 -328 321 C-327.34 321 -326.68 321 -326 321 C-326.57944932 319.00136244 -326.57944932 319.00136244 -328 317 C-330.97503122 315.84164327 -330.97503122 315.84164327 -334 315 C-336 313 -336 313 -336.25 310.625 C-335.98867995 307.88113949 -335.3097642 306.38839354 -334 304 C-333.855625 303.34 -333.71125 302.68 -333.5625 302 C-333 300 -333 300 -331.4375 298.125 C-329.43993756 295.17208161 -329.42878458 293.49869448 -330 290 C-332.72667613 286.28180527 -334.27267969 285.15500269 -338.8125 284.1875 C-339.864375 284.125625 -340.91625 284.06375 -342 284 C-342.33 282.02 -342.66 280.04 -343 278 C-344.32 277.67 -345.64 277.34 -347 277 C-346.979375 275.9275 -346.95875 274.855 -346.9375 273.75 C-346.9857984 270.85209576 -347.13155885 268.71387859 -348 266 C-348.66 266 -349.32 266 -350 266 C-350.33 265.34 -350.66 264.68 -351 264 C-351.66 264.66 -352.32 265.32 -353 266 C-356.10347254 266.33015665 -358.15781176 266.50531294 -360.875 264.875 C-362.5952315 262.0079475 -362.60108996 260.2726009 -362 257 C-359 254.625 -359 254.625 -356 253 C-356.67415387 247.7415998 -358.24265549 242.97361654 -360 238 C-359.175 237.401875 -358.35 236.80375 -357.5 236.1875 C-355.41164071 234.16385044 -355.01913357 233.16027181 -354.66796875 230.21875 C-354.68571607 227.46436561 -354.78362406 224.74557031 -355 222 C-358.11910856 220.20724134 -360.67682428 219.65709282 -364.25 219.375 C-365.58804688 219.26285156 -365.58804688 219.26285156 -366.953125 219.1484375 C-367.96632813 219.07496094 -367.96632813 219.07496094 -369 219 C-369.33 217.35 -369.66 215.7 -370 214 C-371.65 213.67 -373.3 213.34 -375 213 C-374.814375 212.071875 -374.62875 211.14375 -374.4375 210.1875 C-373.75876119 206.98656229 -373.75876119 206.98656229 -375 204 C-378.00847418 202.77479736 -378.00847418 202.77479736 -381 202 C-381.08930308 198.15996751 -380.88524501 194.73770116 -380 191 C-379.855625 190.319375 -379.71125 189.63875 -379.5625 188.9375 C-379 187 -379 187 -377.9375 185.125 C-376.62785069 182.15646155 -376.54072698 180.21491114 -377 177 C-380.45323264 172.39568981 -383.59829522 171.16507358 -389 170 C-389 169.34 -389 168.68 -389 168 C-389.94875 168.061875 -390.8975 168.12375 -391.875 168.1875 C-392.90625 168.125625 -393.9375 168.06375 -395 168 C-397.14915785 164.77626323 -397.38286803 163.73296326 -397 160 C-396.01 159.01 -396.01 159.01 -395 158 C-395 156.35 -395 154.7 -395 153 C-375.53 153 -356.06 153 -336 153 C-332.32058727 160.35882547 -328.97506481 167.16661248 -326.2734375 174.82421875 C-325.95847321 175.69593216 -325.64350891 176.56764557 -325.31900024 177.46577454 C-324.33071904 180.20391141 -323.35219395 182.94538899 -322.375 185.6875 C-321.38922743 188.43977119 -320.40125891 191.19121302 -319.40957642 193.94136047 C-318.79805837 195.63857142 -318.19002184 197.33704281 -317.58627319 199.03703308 C-315.89542558 203.74512779 -314.0097286 208.30662103 -311.94543457 212.86268616 C-310.54524614 216.02804758 -309.3550771 219.24311534 -308.16015625 222.4921875 C-307.6491375 223.87111189 -307.13806822 225.25001756 -306.62695312 226.62890625 C-305.84480291 228.74968492 -305.06398961 230.87094576 -304.28442383 232.99267578 C-300.67804208 242.83655278 -300.67804208 242.83655278 -296.51171875 252.453125 C-293.43685702 259.02900594 -291.00917149 265.83014467 -288.55078125 272.65429688 C-287.74307977 274.89419098 -286.92669055 277.13078589 -286.109375 279.3671875 C-285.58802803 280.8045013 -285.06717648 282.24199491 -284.546875 283.6796875 C-284.30523621 284.34120819 -284.06359741 285.00272888 -283.81463623 285.68429565 C-282.59050936 289.09821525 -281.59728029 292.42059674 -281 296 C-276.52018855 292.34301106 -272.68756755 288.60513572 -268.94921875 284.203125 C-266.72931788 281.69405869 -264.38496498 279.35249193 -262 277 C-259.11010172 274.14476317 -256.31548255 271.28499804 -253.6875 268.1875 C-249.95190478 263.81303814 -245.85454111 259.82799985 -241.76733398 255.78686523 C-238.23608359 252.2801126 -234.89334192 248.68621474 -231.671875 244.890625 C-228.98492712 241.85211384 -226.06213308 239.05457498 -223.17578125 236.20703125 C-221.25502616 234.25868901 -219.45957195 232.27000791 -217.6875 230.1875 C-214.62499817 226.61101185 -211.34719713 223.30610201 -208 220 C-204.10103494 216.14878711 -200.39175693 212.2357826 -196.83984375 208.05859375 C-194.04164208 204.92769719 -191.03226344 202.01170305 -188.04443359 199.06396484 C-185.43879261 196.47977682 -182.93946891 193.85790842 -180.5625 191.0625 C-177.06356651 186.95652263 -173.24167411 183.21418998 -169.40698242 179.42651367 C-166.0293548 176.07433357 -162.85758681 172.61794352 -159.7734375 168.9921875 C-156.80428153 165.65679203 -153.58181657 162.57480673 -150.40625 159.4375 C-148.34550655 157.34999365 -146.40484374 155.22830777 -144.5 153 C-141.80388859 149.84605835 -138.95183025 146.91626603 -136 144 C-133.08946199 141.12442341 -130.27575978 138.24125906 -127.625 135.125 C-124.10268707 131.00172373 -120.2643365 127.23653191 -116.40942383 123.42895508 C-113.00930123 120.05447362 -109.81244263 116.5752063 -106.70703125 112.92578125 C-104.00656931 109.87926469 -101.07675615 107.06898839 -98.1796875 104.2109375 C-96.23766452 102.24107189 -94.41938329 100.22846367 -92.625 98.125 C-89.737852 94.75442257 -86.65753002 91.61496136 -83.5 88.5 C-80.38420505 85.42609809 -77.34122742 82.33297832 -74.5 79 C-71.2169922 75.14877931 -67.64595488 71.6171114 -64.046875 68.06640625 C-61.41976442 65.46094768 -58.90006916 62.81546575 -56.5 60 C-53.65877199 56.66702099 -50.61578377 53.57391199 -47.5 50.5 C-44.40508498 47.44662049 -41.38065723 44.37676315 -38.5625 41.0625 C-35.06289503 36.95573465 -31.24017991 33.21275194 -27.40478516 29.42431641 C-24.05216472 26.09692736 -20.90698068 22.66693795 -17.84765625 19.06640625 C-15.46068262 16.39683109 -12.92288387 13.88917055 -10.375 11.375 C-6.68460116 7.72521077 -3.2006637 4.08360542 0 0 Z " fill="#1E2A63" transform="translate(879,156)"/>
<path d="M0 0 C1.83461792 -0.0163147 1.83461792 -0.0163147 3.70629883 -0.03295898 C4.36948624 -0.04133286 5.03267365 -0.04970673 5.71595764 -0.05833435 C7.86596443 -0.07441653 10.01345001 -0.05556056 12.16333008 -0.02905273 C12.89169067 -0.02446045 13.62005127 -0.01986816 14.3704834 -0.01513672 C33.4716104 0.15172224 47.57500926 4.46399704 61.85083008 17.90844727 C73.85146789 30.56011425 77.42867396 45.06191569 77.19067383 61.97875977 C76.8620335 71.84613471 73.67599031 79.97077913 68.97583008 88.53344727 C68.30370085 89.8640353 67.63519427 91.19648762 66.97583008 92.53344727 C67.4115332 92.97172852 67.84723633 93.41000977 68.29614258 93.86157227 C78.9163891 105.17144519 83.48867526 118.90150107 83.32739258 134.19311523 C82.83586294 149.51586907 76.6772878 163.52520239 65.97583008 174.53344727 C58.4237163 181.31626394 50.64611324 185.52491473 40.97583008 188.53344727 C40.40085407 188.71401389 39.82587807 188.89458052 39.23347855 189.08061886 C36.14360142 189.70037174 33.19265993 189.65602605 30.04095459 189.65370178 C29.34333299 189.65455621 28.64571139 189.65541063 27.92694974 189.65629095 C25.59002694 189.65793769 23.25317596 189.65243757 20.91625977 189.64697266 C19.24081423 189.64669058 17.56536856 189.64684891 15.8899231 189.64741516 C11.34070746 189.64770236 6.79151813 189.64181816 2.24230862 189.6348412 C-2.51161631 189.62859475 -7.26554182 189.62800284 -12.01947021 189.6268158 C-21.02208171 189.6237063 -30.02468109 189.61549803 -39.02728724 189.60546631 C-49.27627646 189.59429334 -59.52526625 189.58879173 -69.77426004 189.58377087 C-90.85757011 189.57331512 -111.94086925 189.55572304 -133.02416992 189.53344727 C-131.90806133 187.77728295 -130.79165563 186.02130747 -129.67512512 184.26541138 C-129.05345868 183.28753222 -128.43179224 182.30965305 -127.79128742 181.30214119 C-124.55830303 176.23674841 -121.24104851 171.2278608 -117.91552734 166.22290039 C-117.10197049 164.99670804 -116.2904991 163.76912985 -115.48095703 162.5402832 C-114.29537277 160.74074833 -113.10387223 158.9452702 -111.91088867 157.15063477 C-110.86227661 155.56677979 -110.86227661 155.56677979 -109.79248047 153.95092773 C-108.02416992 151.53344727 -108.02416992 151.53344727 -106.02416992 150.53344727 C-104.23033635 150.43667727 -102.43288451 150.40440842 -100.63644409 150.40214539 C-99.49251694 150.39813721 -98.34858978 150.39412903 -97.16999817 150.38999939 C-95.27805977 150.39079247 -95.27805977 150.39079247 -93.34790039 150.39160156 C-92.01084783 150.38857054 -90.6737963 150.38504924 -89.33674622 150.381073 C-86.45295979 150.37317709 -83.56918579 150.36803639 -80.68539047 150.36478233 C-76.1211239 150.3588739 -71.55693538 150.34233351 -66.9927063 150.32344055 C-65.42995267 150.31710279 -63.86719899 150.31077717 -62.30444527 150.30446339 C-61.52167851 150.30129758 -60.73891175 150.29813176 -59.93242478 150.29487002 C-49.30514292 150.25280902 -38.67789662 150.21983798 -28.05053711 150.20751953 C-20.88461249 150.19912792 -13.71888038 150.17659374 -6.55305207 150.13816386 C-2.76219748 150.11843435 1.02836952 150.10598806 4.81927872 150.11099815 C8.38992285 150.11565933 11.96002308 150.10176011 15.53055763 150.07398605 C17.45650988 150.06382826 19.3825348 150.07330269 21.30848694 150.08348083 C28.3230614 150.00814331 33.04889617 149.39628013 38.97583008 145.53344727 C43.1724271 140.26079973 44.42284493 136.23867012 43.97583008 129.53344727 C42.1538737 124.15867595 40.0869733 120.38491083 35.14748001 117.44538307 C32.65990368 116.40078104 30.85965093 116.27276767 28.16693115 116.25497437 C26.71986282 116.23822914 26.71986282 116.23822914 25.24356079 116.22114563 C24.1919577 116.21898544 23.14035461 116.21682526 22.05688477 116.21459961 C20.94439362 116.20455399 19.83190247 116.19450836 18.68569946 116.18415833 C15.00637329 116.15325306 11.32712012 116.13627056 7.64770508 116.11938477 C5.09750741 116.10067905 2.54731597 116.08110609 -0.00286865 116.06069946 C-6.03050866 116.01456269 -12.05814159 115.97717711 -18.08586192 115.94402659 C-24.94924383 115.90579219 -31.81253111 115.85638551 -38.67583323 115.80604243 C-52.79187525 115.70274992 -66.90797824 115.61348083 -81.02416992 115.53344727 C-79.37445137 111.19908213 -77.19301712 107.53758202 -74.58666992 103.72094727 C-73.93492798 102.75547974 -73.93492798 102.75547974 -73.27001953 101.77050781 C-71.86062603 99.68741669 -70.44334058 97.60988799 -69.02416992 95.53344727 C-68.53045898 94.80931641 -68.03674805 94.08518555 -67.52807617 93.33911133 C-65.14974007 89.853459 -62.76587126 86.3716126 -60.37182617 82.89672852 C-59.99034424 82.34283447 -59.6088623 81.78894043 -59.21582031 81.21826172 C-58.82257568 80.66227295 -58.42933105 80.10628418 -58.02416992 79.53344727 C-57.66614288 78.84766602 -57.30811584 78.16188477 -56.9392395 77.45532227 C-54.52955254 75.03707221 -52.80135609 75.06835617 -49.4724884 75.05006409 C-48.34335274 75.07410561 -48.34335274 75.07410561 -47.19140625 75.09863281 C-45.99570511 75.09999237 -45.99570511 75.09999237 -44.77584839 75.10137939 C-43.04393768 75.10544582 -41.31203036 75.11844942 -39.58024025 75.13928795 C-36.8344522 75.17041255 -34.08986586 75.17428303 -31.34391785 75.17036438 C-23.53710772 75.16384373 -15.73084064 75.20411243 -7.92431641 75.26904297 C-3.14843238 75.30686417 1.62653188 75.31056042 6.40252113 75.29401588 C8.21854373 75.29477782 10.03461271 75.30876755 11.85042381 75.33649254 C23.19204462 75.88028593 23.19204462 75.88028593 33.05908203 71.13037109 C37.60857819 66.08248655 38.45944567 61.66299768 38.28051758 54.96313477 C37.72586142 50.54010748 35.74329739 48.06540795 32.43981934 45.20210266 C26.22122276 40.75133753 20.40306938 40.80163519 12.94458008 40.82641602 C11.09709167 40.80373405 11.09709167 40.80373405 9.21228027 40.78059387 C5.29994278 40.73779783 1.3883781 40.72888591 -2.52416992 40.72094727 C-5.18569764 40.7005487 -7.84707457 40.67243086 -10.50854492 40.64477539 C-17.01376066 40.58200241 -23.51867538 40.54700437 -30.02416992 40.53344727 C-23.76488799 27.7594025 -14.27144893 16.08689237 -6.02416992 4.53344727 C-5.39478516 3.42658569 -5.39478516 3.42658569 -4.75268555 2.29736328 C-3.02416992 0.53344727 -3.02416992 0.53344727 0 0 Z " fill="#1E2A63" transform="translate(810.024169921875,308.466552734375)"/>
<path d="M0 0 C-3.2175657 19.01617478 -14.54997108 37.84915817 -26 53 C-26.66 53.88300781 -27.32 54.76601563 -28 55.67578125 C-49.3669302 82.99145906 -78.02458831 101.85012151 -111 112 C-121.09725784 102.75285494 -126.292564 87.59989871 -127.19287109 74.11010742 C-127.89046153 48.09421191 -123.68969153 28.595021 -105.90234375 8.96875 C-77.48560023 -20.88935337 -33.1429551 -22.0953034 0 0 Z " fill="#EA1934" transform="translate(1091,318)"/>
<path d="M0 0 C4.97083565 5.63572449 6.70409228 11.95921632 9 19 C9.32484375 19.8765625 9.6496875 20.753125 9.984375 21.65625 C16.04151542 39.71338559 11.93060286 61.27995019 4 78 C-0.26102245 85.94099638 -5.69763443 92.59063332 -12 99 C-12.68707031 99.69996094 -13.37414063 100.39992188 -14.08203125 101.12109375 C-31.21452316 117.42715748 -52.14272646 121.60146094 -74.984375 121.23828125 C-95.66153 120.5933116 -113.53569134 109.86762515 -127.890625 95.41015625 C-129 94 -129 94 -129 92 C-110.98927474 87.05995207 -92.96586125 82.29099893 -74.6875 78.4375 C-50.46325418 73.312039 -24.60459595 67.60473151 -8.8203125 46.8359375 C0.68822595 32.02220592 2.2322185 17.02066608 0 0 Z " fill="#2352A1" transform="translate(1111,341)"/>
<path d="M0 0 C1.04929687 -0.02578125 2.09859375 -0.0515625 3.1796875 -0.078125 C6.43056586 0.28404182 7.74850767 1.06867854 10.125 3.25 C10.455 2.26 10.785 1.27 11.125 0.25 C15.085 0.25 19.045 0.25 23.125 0.25 C23.19946471 5.67599527 23.25375037 11.1016894 23.28979492 16.52807617 C23.30482988 18.37187892 23.32526333 20.21564622 23.35131836 22.05932617 C23.38793561 24.7180255 23.40477943 27.37624971 23.41796875 30.03515625 C23.43345261 30.85210464 23.44893646 31.66905304 23.46488953 32.51075745 C23.46670004 38.74531896 22.4632768 43.6194386 18.1875 48.4296875 C17.506875 48.98914063 16.82625 49.54859375 16.125 50.125 C15.444375 50.69992187 14.76375 51.27484375 14.0625 51.8671875 C10.30399239 54.54967075 6.79878297 54.44266731 2.3125 54.5 C0.50845703 54.53867187 0.50845703 54.53867187 -1.33203125 54.578125 C-6.46996392 54.10228559 -9.70821439 52.18342849 -13.6875 49 C-16.30955006 45.70370849 -16.63082562 43.40096454 -16.875 39.25 C-7.01471743 38.31750392 -7.01471743 38.31750392 -4.2421875 40.5859375 C-3.85289062 41.13507812 -3.46359375 41.68421875 -3.0625 42.25 C-1.17787119 45.55753124 -1.17787119 45.55753124 2.1875 45.8125 C5.37113036 45.20286865 6.84591179 44.52908821 9.125 42.25 C10.2827506 38.77674819 10.19366652 35.88932552 10.125 32.25 C9.526875 32.724375 8.92875 33.19875 8.3125 33.6875 C4.26244965 36.58039311 -0.0417095 37.00816322 -4.875 36.25 C-10.47213242 33.90183595 -13.96100441 30.61175189 -16.875 25.25 C-18.5847368 20.1207896 -18.52117595 15.18852784 -16.8125 10.0625 C-12.42709058 3.6965831 -7.75414764 0.11375278 0 0 Z " fill="#12456B" transform="translate(935.875,674.75)"/>
<path d="M0 0 C23 0 23 0 29 3 C32.30555945 6.74050149 33.69784639 9.82676395 33.47265625 14.8984375 C32.59963727 18.78012519 30.34747138 21.84768129 28 25 C28.7425 25.226875 29.485 25.45375 30.25 25.6875 C33.80512083 27.38426222 35.0834718 28.52185622 37 32 C37.66171991 36.88937489 37.67265439 41.33606547 35.8125 45.9375 C32.88820014 49.26515156 30.22755972 51.59081343 26 53 C17.42 53 8.84 53 0 53 C0 35.51 0 18.02 0 0 Z " fill="#0E4168" transform="translate(670,657)"/>
<path d="M0 0 C3.96 0 7.92 0 12 0 C12 19.47 12 38.94 12 59 C8.04 59 4.08 59 0 59 C-0.33 58.34 -0.66 57.68 -1 57 C-1.804375 57.495 -2.60875 57.99 -3.4375 58.5 C-8.52800151 60.64336906 -12.9230636 61.14144415 -18.1796875 59.19140625 C-23.74672995 56.15579254 -26.84548171 51.9174788 -29 46 C-30.1091766 40.77803581 -28.80124803 36.40012142 -26.28125 31.828125 C-23.8583336 28.37103696 -20.78659268 25.89329634 -17 24 C-15.04550156 23.8518456 -13.0848947 23.77875151 -11.125 23.75 C-10.07570313 23.72421875 -9.02640625 23.6984375 -7.9453125 23.671875 C-5 24 -5 24 -1 27 C-0.67 18.09 -0.34 9.18 0 0 Z " fill="#11446A" transform="translate(1165,651)"/>
<path d="M0 0 C1.04929687 -0.02578125 2.09859375 -0.0515625 3.1796875 -0.078125 C6.43056586 0.28404182 7.74850767 1.06867854 10.125 3.25 C10.455 2.26 10.785 1.27 11.125 0.25 C15.085 0.25 19.045 0.25 23.125 0.25 C23.125 11.8 23.125 23.35 23.125 35.25 C19.165 35.25 15.205 35.25 11.125 35.25 C10.795 34.59 10.465 33.93 10.125 33.25 C9.320625 33.745 8.51625 34.24 7.6875 34.75 C2.59699849 36.89336906 -1.7980636 37.39144415 -7.0546875 35.44140625 C-12.62172995 32.40579254 -15.72048171 28.1674788 -17.875 22.25 C-18.9841766 17.02803581 -17.67624803 12.65012142 -15.15625 8.078125 C-11.20992962 2.44739958 -6.76842795 0.09929234 0 0 Z " fill="#12446A" transform="translate(499.875,674.75)"/>
<path d="M0 0 C1.91796875 1.09765625 1.91796875 1.09765625 4.73046875 3.09765625 C4.73046875 2.10765625 4.73046875 1.11765625 4.73046875 0.09765625 C8.36046875 0.09765625 11.99046875 0.09765625 15.73046875 0.09765625 C15.73046875 11.31765625 15.73046875 22.53765625 15.73046875 34.09765625 C12.10046875 34.09765625 8.47046875 34.09765625 4.73046875 34.09765625 C4.40046875 33.10765625 4.07046875 32.11765625 3.73046875 31.09765625 C3.15296875 31.57203125 2.57546875 32.04640625 1.98046875 32.53515625 C-2.22678403 35.45685957 -6.20769138 35.44674865 -11.26953125 35.09765625 C-16.70537884 33.21174994 -20.03764233 29.72967945 -23.26953125 25.09765625 C-25.11922259 19.54858222 -25.65233459 13.02103243 -23.10546875 7.63671875 C-17.40031153 -0.23347249 -9.575389 -3.80708238 0 0 Z " fill="#104369" transform="translate(894.26953125,675.90234375)"/>
<path d="M0 0 C4.29 0 8.58 0 13 0 C17.29 11.55 21.58 23.1 26 35 C29.27867103 27.13118954 32.40404696 19.33042539 35.25 11.3125 C35.94015052 9.370183 36.63272174 7.42872382 37.328125 5.48828125 C37.6262207 4.64821533 37.92431641 3.80814941 38.23144531 2.94262695 C39 1 39 1 40 0 C42.01964199 -0.07244053 44.04167124 -0.08377188 46.0625 -0.0625 C47.71958984 -0.04896484 47.71958984 -0.04896484 49.41015625 -0.03515625 C50.26480469 -0.02355469 51.11945313 -0.01195312 52 0 C51.38333027 3.5165053 50.46282569 6.65953022 49.14233398 9.97387695 C48.76201523 10.93449539 48.38169647 11.89511383 47.98985291 12.88484192 C47.37419212 14.42104439 47.37419212 14.42104439 46.74609375 15.98828125 C46.32578384 17.04661667 45.90547394 18.10495209 45.47242737 19.19535828 C44.13142203 22.56933449 42.78454284 25.9409303 41.4375 29.3125 C40.52630437 31.60205903 39.61549251 33.89177083 38.70507812 36.18164062 C36.47449831 41.78954164 34.23864827 47.39531526 32 53 C28.37 53 24.74 53 21 53 C18.19726562 46.19335938 15.39453125 39.38671875 12.59179688 32.58007812 C12.28746735 31.84115326 11.98313782 31.10222839 11.66958618 30.34091187 C11.05289662 28.84291115 10.43666681 27.3447211 9.82089233 25.84634399 C8.2157686 21.94229194 6.60180744 18.04224624 4.97314453 14.14794922 C4.48540306 12.97696938 4.48540306 12.97696938 3.98780823 11.78233337 C3.36497474 10.2876148 2.73938564 8.7940407 2.11070251 7.30177307 C0 2.22480412 0 2.22480412 0 0 Z " fill="#11446A" transform="translate(426,657)"/>
<path d="M0 0 C4.90910766 2.28352089 8.06771612 5.38933848 10.51171875 10.27734375 C10.51171875 12.91734375 10.51171875 15.55734375 10.51171875 18.27734375 C1.93171875 18.27734375 -6.64828125 18.27734375 -15.48828125 18.27734375 C-14.82828125 20.25734375 -14.16828125 22.23734375 -13.48828125 24.27734375 C-10.64744484 25.69776196 -8.63350847 25.59186647 -5.48828125 25.27734375 C-4.59496094 24.28541016 -4.59496094 24.28541016 -3.68359375 23.2734375 C-0.7665364 20.62109532 0.8888419 20.8589578 4.76171875 21.02734375 C5.839375 21.0634375 6.91703125 21.09953125 8.02734375 21.13671875 C8.8471875 21.183125 9.66703125 21.22953125 10.51171875 21.27734375 C9.24504326 27.18849603 6.34632315 29.99307663 1.51171875 33.27734375 C-4.17562726 35.9973788 -10.18601088 36.40719543 -16.1484375 34.3671875 C-21.5877534 31.87583663 -24.80268218 29.6485419 -27.48828125 24.27734375 C-29.01848995 19.68671766 -29.42965775 14.90194237 -27.76953125 10.2734375 C-22.03761624 -0.42767802 -11.28684217 -3.27796829 0 0 Z " fill="#12446A" transform="translate(739.48828125,675.72265625)"/>
<path d="M0 0 C3.78424012 2.3941111 7.15079942 4.80598593 9.0625 8.9375 C9.0625 11.9075 9.0625 14.8775 9.0625 17.9375 C0.4825 17.9375 -8.0975 17.9375 -16.9375 17.9375 C-16.2775 20.2475 -15.6175 22.5575 -14.9375 24.9375 C-13.50166999 25.04586453 -12.0634798 25.12326167 -10.625 25.1875 C-9.42423828 25.25710938 -9.42423828 25.25710938 -8.19921875 25.328125 C-7.45285156 25.19921875 -6.70648437 25.0703125 -5.9375 24.9375 C-5.24140625 23.9475 -5.24140625 23.9475 -4.53125 22.9375 C-2.9375 20.9375 -2.9375 20.9375 -0.01953125 20.546875 C1.05941406 20.59328125 2.13835938 20.6396875 3.25 20.6875 C4.33667969 20.72359375 5.42335938 20.7596875 6.54296875 20.796875 C7.79013672 20.86648438 7.79013672 20.86648438 9.0625 20.9375 C7.77980707 25.95166329 6.06582759 28.64587509 2.0625 31.9375 C-3.52139025 35.11265328 -8.64945428 35.82452839 -14.9375 34.9375 C-21.08504848 32.94543725 -25.96087741 29.32599587 -29.25 23.6875 C-30.68637417 17.94200331 -30.90112938 12.96615301 -27.9375 7.6875 C-21.25704511 -1.59090957 -10.79139111 -3.81295819 0 0 Z " fill="#12446A" transform="translate(995.9375,676.0625)"/>
<path d="M0 0 C3.76436161 2.82526083 5.63876253 5.59055111 7.4375 9.9375 C7.4375 12.2475 7.4375 14.5575 7.4375 16.9375 C-1.4725 16.9375 -10.3825 16.9375 -19.5625 16.9375 C-18.2425 19.2475 -16.9225 21.5575 -15.5625 23.9375 C-10.91197128 24.20682521 -10.91197128 24.20682521 -6.5625 22.9375 C-6.2325 21.9475 -5.9025 20.9575 -5.5625 19.9375 C-1.6025 19.9375 2.3575 19.9375 6.4375 19.9375 C5.43594278 24.94528612 4.22501263 27.66689356 0.4375 30.9375 C-4.84936107 34.02438184 -10.5458714 34.73971715 -16.5625 33.9375 C-22.67024969 31.90158344 -27.10351666 29.45298852 -30.375 23.8125 C-32.07426427 19.27136272 -32.2659196 14.71126895 -31.5625 9.9375 C-29.17310179 5.06680366 -25.87789963 2.08414556 -21.5625 -1.0625 C-14.94035073 -3.32266834 -6.12878042 -3.5202976 0 0 Z " fill="#11446A" transform="translate(826.5625,677.0625)"/>
<path d="M0 0 C3.96 0 7.92 0 12 0 C12.33 0.99 12.66 1.98 13 3 C13.598125 2.505 14.19625 2.01 14.8125 1.5 C19.52076064 -0.71565207 23.89841917 -1.07558952 29 0 C32.25364584 2.42601942 34.20299008 5.40598016 36 9 C36.08510205 10.9593604 36.10717656 12.92162794 36.09765625 14.8828125 C36.09443359 16.04941406 36.09121094 17.21601562 36.08789062 18.41796875 C36.07532227 20.25294922 36.07532227 20.25294922 36.0625 22.125 C36.05798828 23.35605469 36.05347656 24.58710937 36.04882812 25.85546875 C36.03701341 28.90366639 36.0190775 31.95183916 36 35 C32.04 35 28.08 35 24 35 C23.505 22.625 23.505 22.625 23 10 C17.41751888 9.39561352 17.41751888 9.39561352 15.1875 11.375 C13.12506255 14.19728283 12.83627621 16.12405123 12.68359375 19.5703125 C12.64169922 20.46621094 12.59980469 21.36210938 12.55664062 22.28515625 C12.51732422 23.22230469 12.47800781 24.15945313 12.4375 25.125 C12.39431641 26.06988281 12.35113281 27.01476562 12.30664062 27.98828125 C12.2004106 30.32534172 12.09968729 32.6626513 12 35 C8.04 35 4.08 35 0 35 C0 23.45 0 11.9 0 0 Z " fill="#14466C" transform="translate(606,675)"/>
<path d="M0 0 C3.96 0 7.92 0 12 0 C12 11.55 12 23.1 12 35 C8.04 35 4.08 35 0 35 C-0.33 34.34 -0.66 33.68 -1 33 C-1.845625 33.495 -2.69125 33.99 -3.5625 34.5 C-7.44294451 36.19328488 -9.80900264 36.45719971 -14 36 C-17.60410929 34.49130309 -20.03657836 32.40282999 -22.1730957 29.10888672 C-24.0749354 24.25854975 -23.39427939 18.74691835 -23.25 13.625 C-23.23195313 12.41199219 -23.21390625 11.19898438 -23.1953125 9.94921875 C-23.14832961 6.96580541 -23.07659116 3.98280009 -23 1 C-19.37 1 -15.74 1 -12 1 C-11.95101562 2.56492187 -11.90203125 4.12984375 -11.8515625 5.7421875 C-11.77654271 7.78647678 -11.70099455 9.83074672 -11.625 11.875 C-11.5940625 12.90753906 -11.563125 13.94007813 -11.53125 15.00390625 C-11.49257813 15.99003906 -11.45390625 16.97617187 -11.4140625 17.9921875 C-11.3826416 18.90339355 -11.3512207 19.81459961 -11.31884766 20.75341797 C-11.20117489 23.19931186 -11.20117489 23.19931186 -9 25 C-6 25.41666667 -6 25.41666667 -3 25 C-0.84250216 21.76375324 -0.71639512 20.65605934 -0.5859375 16.89453125 C-0.54726563 15.91162109 -0.50859375 14.92871094 -0.46875 13.91601562 C-0.4378125 12.89185547 -0.406875 11.86769531 -0.375 10.8125 C-0.33632813 9.77673828 -0.29765625 8.74097656 -0.2578125 7.67382812 C-0.16352131 5.11617973 -0.08067082 2.55811422 0 0 Z " fill="#11446A" transform="translate(585,675)"/>
<path d="M0 0 C1.29550781 -0.02578125 2.59101562 -0.0515625 3.92578125 -0.078125 C9.20459309 0.38233211 12.42665019 1.92278967 16.0625 5.75 C17.6875 8.25 17.6875 8.25 17.6875 11.25 C14.0575 11.25 10.4275 11.25 6.6875 11.25 C6.3575 10.26 6.0275 9.27 5.6875 8.25 C3.0475 8.25 0.4075 8.25 -2.3125 8.25 C-2.6425 9.57 -2.9725 10.89 -3.3125 12.25 C-2.19875 12.353125 -1.085 12.45625 0.0625 12.5625 C6.28452687 13.37069922 12.45679666 14.33796857 17.3125 18.5 C19.10262754 22.08025509 19.25291461 24.29209775 18.6875 28.25 C16.51405501 32.07526317 13.95012164 34.18245396 9.80859375 35.75 C3.22052685 37.30298815 -4.08957133 36.86363004 -10.3125 34.25 C-13.43929534 31.60959505 -15.89054006 29.12807256 -17.3125 25.25 C-17.3125 24.26 -17.3125 23.27 -17.3125 22.25 C-13.3525 22.25 -9.3925 22.25 -5.3125 22.25 C-4.6525 23.57 -3.9925 24.89 -3.3125 26.25 C-0.3425 26.25 2.6275 26.25 5.6875 26.25 C5.6875 25.26 5.6875 24.27 5.6875 23.25 C2.39299108 21.7125625 -0.75735497 20.94393621 -4.3125 20.3125 C-8.19055424 19.57850166 -11.13349025 18.71116884 -14.3125 16.25 C-15.92214787 13.03070427 -15.91936242 9.73112288 -15.3125 6.25 C-10.78343791 0.49686707 -7.05035533 0.08368374 0 0 Z " fill="#14466C" transform="translate(1027.3125,674.75)"/>
<path d="M0 0 C3.96 0 7.92 0 12 0 C12 14.52 12 29.04 12 44 C18.27 44 24.54 44 31 44 C31 47.3 31 50.6 31 54 C20.77 54 10.54 54 0 54 C0 36.18 0 18.36 0 0 Z " fill="#15476C" transform="translate(1072,656)"/>
<path d="M0 0 C4.95520521 2.57289501 8.49116963 5.98233926 11 11 C11.59911836 16.99118363 10.25685622 21.07581124 7 26 C3.0803289 29.68211527 -0.57597458 30.12062645 -5.8671875 30.328125 C-8 30 -8 30 -13 27 C-13.33 31.29 -13.66 35.58 -14 40 C-15.65 40 -17.3 40 -19 40 C-19.08735463 35.45845522 -19.14051247 30.91712768 -19.1875 26.375 C-19.21263672 25.08980469 -19.23777344 23.80460938 -19.26367188 22.48046875 C-19.27333984 21.23652344 -19.28300781 19.99257813 -19.29296875 18.7109375 C-19.3086792 17.56931152 -19.32438965 16.42768555 -19.34057617 15.25146484 C-18.88703764 10.92155358 -17.44901153 7.55224899 -14.46484375 4.35546875 C-9.53083077 0.5824 -6.28416094 -0.84414102 0 0 Z " fill="#2E5BA6" transform="translate(995,494)"/>
<path d="M0 0 C4.42345946 2.49776399 8.16060852 5.13422056 10 10 C10.69930116 14.8544511 10.6342602 19.51311544 8.375 23.9375 C5.37483808 27.80612984 2.92032301 29.5926465 -1.98828125 30.27734375 C-6.97243245 30.51200247 -8.52188437 29.68686938 -13 27 C-13.33 31.29 -13.66 35.58 -14 40 C-15.65 40 -17.3 40 -19 40 C-19.09957372 35.99828532 -19.17179608 31.99705958 -19.21972656 27.99438477 C-19.23972628 26.63553287 -19.26693576 25.27676576 -19.30175781 23.91821289 C-19.65691318 9.69632965 -19.65691318 9.69632965 -15 4 C-10.68027901 0.44625015 -5.49257697 -0.98081732 0 0 Z " fill="#2A58A4" transform="translate(1062,494)"/>
<path d="M0 0 C3.63 0 7.26 0 11 0 C13.84420356 6.09472192 16.13586869 12.1817052 18.16796875 18.59375 C18.77697259 20.92270755 18.77697259 20.92270755 20 22 C20.20681396 21.36908447 20.41362793 20.73816895 20.62670898 20.08813477 C21.56053426 17.24522551 22.49895326 14.40385384 23.4375 11.5625 C23.76298828 10.56927734 24.08847656 9.57605469 24.42382812 8.55273438 C24.73642578 7.60849609 25.04902344 6.66425781 25.37109375 5.69140625 C25.65911865 4.81685791 25.94714355 3.94230957 26.24389648 3.04125977 C27 1 27 1 28 0 C30.01964199 -0.07244053 32.04167124 -0.08377188 34.0625 -0.0625 C35.71958984 -0.04896484 35.71958984 -0.04896484 37.41015625 -0.03515625 C38.26480469 -0.02355469 39.11945312 -0.01195312 40 0 C37.54339947 7.63096841 34.71145927 15.08971911 31.8125 22.5625 C31.34908203 23.76197266 30.88566406 24.96144531 30.40820312 26.19726562 C29.2739767 29.13222265 28.13724342 32.06621069 27 35 C22.05 35 17.1 35 12 35 C10.44827761 30.82031942 8.89888291 26.63992073 7.35522461 22.45727539 C6.82986748 21.0358826 6.30319028 19.61497697 5.77514648 18.19458008 C5.01455177 16.14792794 4.25878709 14.09954667 3.50390625 12.05078125 C3.04830322 10.82012939 2.5927002 9.58947754 2.12329102 8.3215332 C1 5 1 5 0 0 Z " fill="#14466C" transform="translate(753,675)"/>
<path d="M0 0 C3.96 0 7.92 0 12 0 C12 4.29 12 8.58 12 13 C13.98 13 15.96 13 18 13 C18 16.3 18 19.6 18 23 C16.02 23 14.04 23 12 23 C12 31.25 12 39.5 12 48 C8.04 48 4.08 48 0 48 C0 39.42 0 30.84 0 22 C-2.31 22 -4.62 22 -7 22 C-7 19.03 -7 16.06 -7 13 C-4.69 13 -2.38 13 0 13 C0 8.71 0 4.42 0 0 Z " fill="#17496E" transform="translate(1114,662)"/>
<path d="M0 0 C5.12464816 1.84487334 7.96848171 4.49602997 11 9 C11.8125 12.875 11.8125 12.875 12 16 C7.26101734 18.45153075 2.87937667 18.23154206 -2.3125 18.125 C-3.14845703 18.11597656 -3.98441406 18.10695313 -4.84570312 18.09765625 C-6.89725969 18.07420989 -8.94866777 18.03834266 -11 18 C-9.13433512 21.62793998 -9.13433512 21.62793998 -6 24 C-3.95088239 23.93814311 -3.95088239 23.93814311 -1.6875 23.625 C-0.88828125 23.52574219 -0.0890625 23.42648437 0.734375 23.32421875 C3.17927987 22.97434443 5.59062232 22.54405303 8 22 C8 23.32 8 24.64 8 26 C4.6945167 29.05121536 1.92516923 30.29034731 -2.5 30.5 C-8.16681227 30.22380243 -11.20454442 27.55921142 -15.375 23.9375 C-17.89049937 19.39025114 -17.73160041 15.07641098 -17 10 C-13.54284734 2.68679246 -8.12973777 -1.01621722 0 0 Z " fill="#2E5BA6" transform="translate(1027,494)"/>
<path d="M0 0 C3.96 0 7.92 0 12 0 C12.33 0.99 12.66 1.98 13 3 C13.495 2.505 13.99 2.01 14.5 1.5 C18.11630158 -0.66978095 20.82231616 -0.20888419 25 0 C25 3.63 25 7.26 25 11 C24.34 10.67 23.68 10.34 23 10 C20.08461971 9.49957854 20.08461971 9.49957854 17 10 C13.58631967 12.98541862 12.72632421 15.48841602 12.390625 19.86328125 C12.32459551 21.6790921 12.27824693 23.49570859 12.25 25.3125 C12.22035156 26.24384766 12.19070313 27.17519531 12.16015625 28.13476562 C12.08975775 30.4227169 12.04257931 32.71136198 12 35 C8.04 35 4.08 35 0 35 C0 23.45 0 11.9 0 0 Z " fill="#16486D" transform="translate(532,675)"/>
<path d="M0 0 C1.8871875 0.061875 1.8871875 0.061875 3.8125 0.125 C3.8125 3.755 3.8125 7.385 3.8125 11.125 C2.74 10.8775 1.6675 10.63 0.5625 10.375 C-3.07460916 9.77444424 -3.07460916 9.77444424 -5.375 11.4375 C-8.21178874 15.64377296 -7.86476791 19.9093818 -7.9375 24.875 C-7.96714844 25.85855469 -7.99679687 26.84210937 -8.02734375 27.85546875 C-8.09790892 30.2782064 -8.14498435 32.70160783 -8.1875 35.125 C-12.1475 35.125 -16.1075 35.125 -20.1875 35.125 C-20.1875 23.905 -20.1875 12.685 -20.1875 1.125 C-16.5575 1.125 -12.9275 1.125 -9.1875 1.125 C-9.1875 2.115 -9.1875 3.105 -9.1875 4.125 C-8.5275 4.125 -7.8675 4.125 -7.1875 4.125 C-7.1875 3.465 -7.1875 2.805 -7.1875 2.125 C-4.09861478 0.06574319 -3.47814073 -0.1140374 0 0 Z " fill="#11446A" transform="translate(862.1875,674.875)"/>
<path d="M0 0 C1.5675 -0.020625 3.135 -0.04125 4.75 -0.0625 C6.07257812 -0.07990234 6.07257812 -0.07990234 7.421875 -0.09765625 C9.78259788 -0.00823493 11.72504136 0.43126034 14 1 C14.33 0.67 14.66 0.34 15 0 C16.99958364 -0.04080783 19.00045254 -0.04254356 21 0 C21.33 0.99 21.66 1.98 22 3 C20.02 3 18.04 3 16 3 C16.73976471 6.2925712 16.73976471 6.2925712 20.0625 7.875 C23 10 23 10 23.5625 12.5625 C22.89922588 15.43668785 22.49653787 16.41885935 20 18 C17.0625 18.1875 17.0625 18.1875 14 18 C12.68 18 11.36 18 10 18 C6.66666667 18 3.33333333 18 0 18 C0 12.06 0 6.12 0 0 Z " fill="#E5E5E5" transform="translate(871,510)"/>
<path d="M0 0 C2.34321439 1.11650093 3.97194279 2.33595306 6 4 C5.01 5.485 5.01 5.485 4 7 C3.319375 6.835 2.63875 6.67 1.9375 6.5 C-1.4164822 5.92910941 -4.60389805 5.93340977 -8 6 C-8.33 7.32 -8.66 8.64 -9 10 C-6.03527184 12.23490319 -6.03527184 12.23490319 -2.125 12.875 C1.74608677 13.80348945 4.28924001 14.95039501 7 18 C7.625 20.9375 7.625 20.9375 7 24 C2.15993326 29.73165799 2.15993326 29.73165799 -1.91796875 30.23828125 C-7.85900707 30.4325665 -11.08859772 29.34393347 -16 26 C-15.34 24.68 -14.68 23.36 -14 22 C-11.83125748 22.50603992 -10.00032373 22.99983813 -8 24 C-5.6670134 24.04022391 -3.33293334 24.04320247 -1 24 C-0.34 22.35 0.32 20.7 1 19 C0.18015625 18.82984375 -0.6396875 18.6596875 -1.484375 18.484375 C-2.56203125 18.24203125 -3.6396875 17.9996875 -4.75 17.75 C-5.81734375 17.51796875 -6.8846875 17.2859375 -7.984375 17.046875 C-11.32566497 15.88694532 -12.83293376 14.76788792 -15 12 C-15.625 8.5625 -15.625 8.5625 -15 5 C-10.74493427 -0.12789973 -6.53834012 -1.31699186 0 0 Z " fill="#2D5AA5" transform="translate(1092,494)"/>
<path d="M0 0 C2.3181362 1.89111111 3.66914015 3.33828031 5 6 C5.39447548 10.18144011 5.45035186 12.30946048 3.125 15.875 C0.39955109 18.60044891 -0.43500609 18.94669869 -4.3125 19.3125 C-8 19 -8 19 -10.875 17.5625 C-13.47003408 14.4331942 -14.01954256 12.26364634 -14.27734375 8.2578125 C-13.79386147 4.32185816 -11.85725154 2.65790841 -9 0 C-5.81452856 -1.59273572 -3.39809153 -0.76164121 0 0 Z " fill="#F6F8FA" transform="translate(1062,500)"/>
<path d="M0 0 C2.86892259 2.0143499 4.69896003 3.41954014 5.375 6.96875 C5.48678284 10.71347502 5.23537078 13.94107157 3 17 C-0.69720147 19.46480098 -3.71155966 19.7842673 -8 19 C-11 17.0625 -11 17.0625 -13 14 C-13.95482759 9.32725969 -13.66302995 6.06084792 -11.125 2 C-7.30075363 -1.5992907 -5.05921353 -1.20049135 0 0 Z " fill="#F6F8FA" transform="translate(995,500)"/>
<path d="M0 0 C4.10703441 0.85563217 5.55401113 2.24378009 8 5.625 C8.66154724 9.74129392 8.39475662 11.85193494 6.5 15.5625 C3.47072721 18.06165005 1.75272434 18.3709903 -2.09375 18.10546875 C-4 17.625 -4 17.625 -6.5 15.5625 C-8.39475662 11.85193494 -8.66154724 9.74129392 -8 5.625 C-5.55401113 2.24378009 -4.10703441 0.85563217 0 0 Z " fill="#F6F8F9" transform="translate(1157,683.375)"/>
<path d="M0 0 C4.10703441 0.85563217 5.55401113 2.24378009 8 5.625 C8.66154724 9.74129392 8.39475662 11.85193494 6.5 15.5625 C3.47072721 18.06165005 1.75272434 18.3709903 -2.09375 18.10546875 C-4 17.625 -4 17.625 -6.5 15.5625 C-8.39475662 11.85193494 -8.66154724 9.74129392 -8 5.625 C-5.55401113 2.24378009 -4.10703441 0.85563217 0 0 Z " fill="#F6F8F9" transform="translate(503,683.375)"/>
<path d="M0 0 C0.33 0.66 0.66 1.32 1 2 C36.31 2.33 71.62 2.66 108 3 C108.495 3.99 108.495 3.99 109 5 C72.37 5 35.74 5 -2 5 C-1.34 3.35 -0.68 1.7 0 0 Z " fill="#4E5485" transform="translate(731,419)"/>
<path d="M0 0 C5.40178571 1.66964286 5.40178571 1.66964286 7.4375 5.0625 C7.73837496 9.22209637 7.43116393 12.80131116 4.8125 16.125 C1.45719514 17.44946244 -0.98873292 17.50922088 -4.5625 17.0625 C-7 15.5625 -7 15.5625 -8.5625 13.0625 C-9.27623503 8.06635481 -9.32870649 6.20020054 -6.5 2 C-3.5625 0.0625 -3.5625 0.0625 0 0 Z " fill="#F9FAFB" transform="translate(939.5625,683.9375)"/>
<path d="M0 0 C4.11224846 0.94239027 5.56584727 2.25104909 8 5.6875 C8.89291241 9.60855015 8.6077527 12.71509567 6.4375 16.1875 C3.0761612 18.25601618 0.88040089 18.17255011 -3 17.6875 C-5.375 16.6875 -5.375 16.6875 -7 14.6875 C-8.76498386 8.35432263 -8.76498386 8.35432263 -7.1484375 4.83203125 C-5.07091511 2.01062181 -3.4041948 0.78012797 0 0 Z " fill="#F8F9FA" transform="translate(890,683.3125)"/>
<path d="M0 0 C0 3.98030605 -1.89496271 5.94198399 -4.1875 9 C-5.10472522 10.25254585 -6.01998427 11.50653313 -6.93359375 12.76171875 C-7.42714355 13.43895996 -7.92069336 14.11620117 -8.42919922 14.81396484 C-11.26985612 18.76721972 -14.00748268 22.79082791 -16.75 26.8125 C-17.28004639 27.58787109 -17.81009277 28.36324219 -18.35620117 29.16210938 C-21.94118855 34.41688582 -25.48126062 39.70066529 -29 45 C-29.84062397 41.90226756 -30.08935201 39.21667249 -30 36 C-31.98 36.495 -31.98 36.495 -34 37 C-29.67652846 31.8850006 -25.21578394 26.9382372 -20.625 22.0625 C-19.9645166 21.35883301 -19.3040332 20.65516602 -18.62353516 19.93017578 C-14.68498546 15.74722458 -10.68438454 11.64404594 -6.5859375 7.6171875 C-4.2210069 5.20565728 -2.10914586 2.63643233 0 0 Z " fill="#232D65" transform="translate(879,156)"/>
<path d="M0 0 C8 0 8 0 11 2 C11.125 5.5625 11.125 5.5625 11 9 C11.33 9.33 11.66 9.66 12 10 C12.3125 12.375 12.3125 12.375 12 15 C10.5 16.8125 10.5 16.8125 8 18 C5.36 18 2.72 18 0 18 C0 12.06 0 6.12 0 0 Z " fill="#313130" transform="translate(765,510)"/>
<path d="M0 0 C3.51903714 -0.31991247 5.42015168 -0.37169764 8.4375 1.5625 C10 4 10 4 10 7.5 C8.94526076 11.19158734 7.94472442 12.62522224 5 15 C4.67 14.34 4.34 13.68 4 13 C3.34 13.66 2.68 14.32 2 15 C-1.10347254 15.33015665 -3.15781176 15.50531294 -5.875 13.875 C-7.5952315 11.0079475 -7.60108996 9.2726009 -7 6 C-4.0625 3.75 -4.0625 3.75 -1 2 C-0.67 1.34 -0.34 0.68 0 0 Z " fill="#E0E1E8" transform="translate(524,407)"/>
<path d="M0 0 C1.5675 -0.061875 3.135 -0.12375 4.75 -0.1875 C6.07257812 -0.23970703 6.07257812 -0.23970703 7.421875 -0.29296875 C10.5125515 0.05824449 11.81474628 0.80973423 14 3 C14.5 6.5 14.5 6.5 14 10 C11.81474628 12.19026577 10.5125515 12.94175551 7.421875 13.29296875 C6.54015625 13.25816406 5.6584375 13.22335937 4.75 13.1875 C3.1825 13.125625 1.615 13.06375 0 13 C0 8.71 0 4.42 0 0 Z " fill="#F0F3F5" transform="translate(681,688)"/>
<path d="M0 0 C3.3 0 6.6 0 10 0 C11.36475387 2.72950775 11.06060095 4.96995272 11 8 C11 11.27275026 11.29925156 13.846632 12 17 C10.125 16.75 10.125 16.75 8 16 C6.875 14 6.875 14 6 12 C5.34 11.67 4.68 11.34 4 11 C4 12.98 4 14.96 4 17 C2.68 17.33 1.36 17.66 0 18 C0 12.06 0 6.12 0 0 Z " fill="#515151" transform="translate(823,510)"/>
<path d="M0 0 C0.99 0 1.98 0 3 0 C3 5.94 3 11.88 3 18 C-2 17 -2 17 -3.36328125 15.2578125 C-3.67652344 14.55398438 -3.98976563 13.85015625 -4.3125 13.125 C-4.63863281 12.42632813 -4.96476563 11.72765625 -5.30078125 11.0078125 C-6 9 -6 9 -6 6 C-6.66 6 -7.32 6 -8 6 C-8 9.96 -8 13.92 -8 18 C-8.99 18 -9.98 18 -11 18 C-11 12.39 -11 6.78 -11 1 C-9.35 1 -7.7 1 -6 1 C-4.35 3.97 -2.7 6.94 -1 10 C-0.67 6.7 -0.34 3.4 0 0 Z " fill="#434342" transform="translate(752,510)"/>
<path d="M0 0 C2.32421875 0.0703125 2.32421875 0.0703125 5 1 C6.23264809 3.38007607 7.04420428 5.35095962 7.8125 7.875 C8.02841797 8.51308594 8.24433594 9.15117188 8.46679688 9.80859375 C9.40188875 12.65246048 10 14.98995706 10 18 C8.68 17.67 7.36 17.34 6 17 C6 16.01 6 15.02 6 14 C3.36 14 0.72 14 -2 14 C-2.33 15.32 -2.66 16.64 -3 18 C-3.66 18 -4.32 18 -5 18 C-4.51030705 11.38914524 -2.66557258 6.05022986 0 0 Z " fill="#464646" transform="translate(842,510)"/>
<path d="M0 0 C1.65 0.33 3.3 0.66 5 1 C5 2.32 5 3.64 5 5 C5.66 5 6.32 5 7 5 C7.50757862 6.41396902 8.00574925 7.83131729 8.5 9.25 C8.7784375 10.03890625 9.056875 10.8278125 9.34375 11.640625 C10 14 10 14 10 18 C8.68 18 7.36 18 6 18 C6 16.68 6 15.36 6 14 C3.36 14 0.72 14 -2 14 C-2 14.99 -2 15.98 -2 17 C-2.99 17 -3.98 17 -5 17 C-3.83348574 11.07136283 -2.24480642 5.61201606 0 0 Z " fill="#4D4D4C" transform="translate(696,510)"/>
<path d="M0 0 C0.99 0.66 1.98 1.32 3 2 C3 2.66 3 3.32 3 4 C2.37351562 3.96519531 1.74703125 3.93039062 1.1015625 3.89453125 C0.28429687 3.86746094 -0.53296875 3.84039063 -1.375 3.8125 C-2.59316406 3.76029297 -2.59316406 3.76029297 -3.8359375 3.70703125 C-4.55007813 3.80371094 -5.26421875 3.90039062 -6 4 C-8.36692966 6.84826598 -8.36692966 6.84826598 -7.625 10.1875 C-7.41875 11.115625 -7.2125 12.04375 -7 13 C-5.02 13.66 -3.04 14.32 -1 15 C-1 13.68 -1 12.36 -1 11 C-1.99 11 -2.98 11 -4 11 C-4 10.01 -4 9.02 -4 8 C-1.69 8 0.62 8 3 8 C3 10.97 3 13.94 3 17 C-0.59264452 18.19754817 -3.22717474 18.33094958 -7 18 C-9.36497439 16.13291495 -10.66030715 14.67938569 -12 12 C-12.49055907 7.66672826 -12.47744439 5.67999656 -9.9375 2.0625 C-6.29752588 -0.49322651 -4.36253463 -0.56551375 0 0 Z " fill="#373737" transform="translate(865,510)"/>
<path d="M0 0 C8 0 8 0 10.5 1.25 C12 3 12 3 12 7 C11.01 6.67 10.02 6.34 9 6 C9 5.01 9 4.02 9 3 C7.02 3 5.04 3 3 3 C3 4.65 3 6.3 3 8 C4.98 8 6.96 8 9 8 C13 14.625 13 14.625 13 18 C11.68 18 10.36 18 9 18 C8.731875 17.195625 8.46375 16.39125 8.1875 15.5625 C7.795625 14.716875 7.40375 13.87125 7 13 C6.01 12.67 5.02 12.34 4 12 C4 13.98 4 15.96 4 18 C2.68 18 1.36 18 0 18 C0 12.06 0 6.12 0 0 Z " fill="#4B4B4A" transform="translate(708,510)"/>
<path d="M0 0 C1.65 0 3.3 0 5 0 C5 9.24 5 18.48 5 28 C3.35 28 1.7 28 0 28 C0 18.76 0 9.52 0 0 Z " fill="#2F5CA6" transform="translate(1105,495)"/>
<path d="M0 0 C19.47 0 38.94 0 59 0 C59.66 1.65 60.32 3.3 61 5 C60.34 5.33 59.68 5.66 59 6 C58.34 5.01 57.68 4.02 57 3 C54.49939891 2.5224433 54.49939891 2.5224433 51.54052734 2.56762695 C50.39949554 2.54783279 49.25846375 2.52803864 48.08285522 2.50764465 C46.84637238 2.50125473 45.60988953 2.49486481 44.3359375 2.48828125 C42.4424205 2.46135445 42.4424205 2.46135445 40.51065063 2.43388367 C37.15357857 2.38879765 33.79687552 2.35655055 30.43963623 2.33044434 C27.01430927 2.30067385 23.58921519 2.25413165 20.1640625 2.20898438 C13.44281547 2.1238168 6.72155339 2.05556225 0 2 C0 1.34 0 0.68 0 0 Z " fill="#525787" transform="translate(484,309)"/>
<path d="M0 0 C3.3 0 6.6 0 10 0 C10 0.99 10 1.98 10 3 C8.02 3 6.04 3 4 3 C4 4.32 4 5.64 4 7 C5.65 7 7.3 7 9 7 C9.33 7.99 9.66 8.98 10 10 C7.69 10 5.38 10 3 10 C3 11.65 3 13.3 3 15 C5.31 15 7.62 15 10 15 C10 15.99 10 16.98 10 18 C6.7 18 3.4 18 0 18 C0 12.06 0 6.12 0 0 Z " fill="#777776" transform="translate(871,510)"/>
<path d="M0 0 C0.99 0 1.98 0 3 0 C3.10823773 2.24893954 3.18569645 4.49937575 3.25 6.75 C3.29640625 8.00296875 3.3428125 9.2559375 3.390625 10.546875 C3 14 3 14 1.17578125 16.42578125 C-1.74377339 18.53813407 -3.47406237 18.52513965 -7 18 C-8.671875 16.921875 -8.671875 16.921875 -10 15 C-10.29296875 11.64453125 -10.29296875 11.64453125 -10.1875 7.8125 C-10.16042969 6.54019531 -10.13335938 5.26789062 -10.10546875 3.95703125 C-10.07066406 2.98121094 -10.03585937 2.00539063 -10 1 C-9.01 1 -8.02 1 -7 1 C-6.67 5.62 -6.34 10.24 -6 15 C-4.35 14.34 -2.7 13.68 -1 13 C-0.67 8.71 -0.34 4.42 0 0 Z " fill="#2C2C2A" transform="translate(734,510)"/>
<path d="M0 0 C6.25925926 -0.48148148 6.25925926 -0.48148148 9.5 1.625 C11 4 11 4 10.9375 7.125 C10 10 10 10 7 12 C4.66800612 12.07905064 2.33167378 12.08798769 0 12 C0 8.04 0 4.08 0 0 Z " fill="#EAEFF2" transform="translate(681,666)"/>
<path d="M0 0 C0.99 0 1.98 0 3 0 C1.75971762 6.17222879 0.10396411 12.06682122 -2 18 C-3.65 18 -5.3 18 -7 18 C-7.83698386 15.54285453 -8.66972424 13.08441143 -9.5 10.625 C-9.73847656 9.92632813 -9.97695313 9.22765625 -10.22265625 8.5078125 C-12 3.2265625 -12 3.2265625 -12 1 C-11.01 1 -10.02 1 -9 1 C-7.68 4.63 -6.36 8.26 -5 12 C-4.360625 10.205625 -3.72125 8.41125 -3.0625 6.5625 C-1.125 1.125 -1.125 1.125 0 0 Z " fill="#4C4C4B" transform="translate(688,510)"/>
<path d="M0 0 C3.3 0 6.6 0 10 0 C10 0.99 10 1.98 10 3 C7.69 3 5.38 3 3 3 C3 4.32 3 5.64 3 7 C4.98 7 6.96 7 9 7 C9.33 7.99 9.66 8.98 10 10 C7.69 10 5.38 10 3 10 C3 11.65 3 13.3 3 15 C5.31 15 7.62 15 10 15 C10 15.99 10 16.98 10 18 C6.7 18 3.4 18 0 18 C0 12.06 0 6.12 0 0 Z " fill="#5E5E5D" transform="translate(780,510)"/>
<path d="M0 0 C1.23556641 0.01740234 1.23556641 0.01740234 2.49609375 0.03515625 C3.32238281 0.04417969 4.14867187 0.05320312 5 0.0625 C5.63808594 0.07410156 6.27617188 0.08570313 6.93359375 0.09765625 C6.93359375 1.08765625 6.93359375 2.07765625 6.93359375 3.09765625 C4.95359375 3.09765625 2.97359375 3.09765625 0.93359375 3.09765625 C0.93359375 4.41765625 0.93359375 5.73765625 0.93359375 7.09765625 C2.58359375 7.09765625 4.23359375 7.09765625 5.93359375 7.09765625 C6.26359375 8.08765625 6.59359375 9.07765625 6.93359375 10.09765625 C4.95359375 10.09765625 2.97359375 10.09765625 0.93359375 10.09765625 C0.93359375 11.74765625 0.93359375 13.39765625 0.93359375 15.09765625 C2.91359375 15.09765625 4.89359375 15.09765625 6.93359375 15.09765625 C6.93359375 15.75765625 6.93359375 16.41765625 6.93359375 17.09765625 C3.63359375 17.09765625 0.33359375 17.09765625 -3.06640625 17.09765625 C-3.09325304 14.45175611 -3.11316982 11.80612529 -3.12890625 9.16015625 C-3.13728516 8.40541016 -3.14566406 7.65066406 -3.15429688 6.87304688 C-3.16293066 4.94771312 -3.11864958 3.02230044 -3.06640625 1.09765625 C-2.06640625 0.09765625 -2.06640625 0.09765625 0 0 Z " fill="#383836" transform="translate(812.06640625,509.90234375)"/>
<path d="M0 0 C2.4375 1.875 2.4375 1.875 4 4 C4 4.99 4 5.98 4 7 C-1.94 7.33 -7.88 7.66 -14 8 C-13 3 -13 3 -10.375 0.625 C-6.25035144 -1.3609419 -4.35705784 -1.2909801 0 0 Z " fill="#F3F5F8" transform="translate(1029,500)"/>
<path d="M0 0 C1.32 0 2.64 0 4 0 C4.50512244 1.60256108 5.00391627 3.20711792 5.5 4.8125 C5.7784375 5.70582031 6.056875 6.59914063 6.34375 7.51953125 C7 10 7 10 7 13 C7.66 13 8.32 13 9 13 C9.144375 11.7625 9.28875 10.525 9.4375 9.25 C9.78688502 6.43495501 10.20379366 3.7298503 11 1 C12.32 1.33 13.64 1.66 15 2 C13.35 6.95 11.7 11.9 10 17 C8.35 17 6.7 17 5 17 C4.80664062 16.32453125 4.61328125 15.6490625 4.4140625 14.953125 C4.15367187 14.06109375 3.89328125 13.1690625 3.625 12.25 C3.36976563 11.36828125 3.11453125 10.4865625 2.8515625 9.578125 C2.08121569 7.02137668 2.08121569 7.02137668 0.8984375 4.859375 C0 3 0 3 0 0 Z " fill="#333332" transform="translate(792,510)"/>
<path d="M0 0 C0.94875 0.04125 1.8975 0.0825 2.875 0.125 C3.205 1.115 3.535 2.105 3.875 3.125 C1.895 3.125 -0.085 3.125 -2.125 3.125 C-1.38523529 6.4175712 -1.38523529 6.4175712 1.9375 8 C4.875 10.125 4.875 10.125 5.4375 12.6875 C4.77422588 15.56168785 4.37153787 16.54385935 1.875 18.125 C-1.3125 18.3125 -1.3125 18.3125 -4.125 18.125 C-4.785 16.805 -5.445 15.485 -6.125 14.125 C-3.815 14.125 -1.505 14.125 0.875 14.125 C0.875 13.465 0.875 12.805 0.875 12.125 C-0.115 11.5475 -1.105 10.97 -2.125 10.375 C-5.125 8.125 -5.125 8.125 -5.625 5 C-4.91558846 0.92088363 -4.16011452 0.16640458 0 0 Z " fill="#30302F" transform="translate(889.125,509.875)"/>
<path d="M0 0 C2 1 2 1 4 4 C6.05925139 4.72382467 6.05925139 4.72382467 8 5 C7.67 7.31 7.34 9.62 7 12 C5.02 12.33 3.04 12.66 1 13 C0.67 11.35 0.34 9.7 0 8 C-1.32 8.33 -2.64 8.66 -4 9 C-4.25 6.1875 -4.25 6.1875 -4 3 C-2 1.125 -2 1.125 0 0 Z " fill="#2F3A6E" transform="translate(549,454)"/>
<path d="M0 0 C0 4.17562462 -2.23180619 6.46166886 -4.625 9.6875 C-5.0792334 10.31092285 -5.5334668 10.9343457 -6.00146484 11.57666016 C-7.32637013 13.39045691 -8.66100284 15.19658986 -10 17 C-10.66 17.89074219 -11.32 18.78148437 -12 19.69921875 C-13.32456192 21.47273075 -14.66061718 23.23765419 -16 25 C-17.98 24.67 -19.96 24.34 -22 24 C-17.92668048 19.04596275 -13.5453216 14.50356383 -8.98388672 10.00341797 C-5.76646772 6.81267187 -2.79344335 3.56404842 0 0 Z " fill="#2C366C" transform="translate(879,156)"/>
<path d="M0 0 C2.875 2.375 2.875 2.375 5 5 C5 5.66 5 6.32 5 7 C-0.28 7 -5.56 7 -11 7 C-8.51752211 0.79380528 -6.60571843 -0.92480058 0 0 Z " fill="#DEE5EA" transform="translate(818,682)"/>
<path d="M0 0 C3 0.25 3 0.25 5 2.25 C5.25 5.25 5.25 5.25 5 8.25 C3 10.25 3 10.25 0 10.5 C-3 10.25 -3 10.25 -5 8.25 C-5.25 5.25 -5.25 5.25 -5 2.25 C-3 0.25 -3 0.25 0 0 Z " fill="#1F2A62" transform="translate(522,410.75)"/>
<path d="M0 0 C2.4375 1.8125 2.4375 1.8125 4 4 C4 4.99 4 5.98 4 7 C-0.95 7 -5.9 7 -11 7 C-9.30676242 0.22704966 -6.989962 -0.85841639 0 0 Z " fill="#E1E7EC" transform="translate(990,682)"/>
<path d="M0 0 C2.875 1.8125 2.875 1.8125 5 4 C5 4.99 5 5.98 5 7 C0.05 7 -4.9 7 -10 7 C-9.67 5.35 -9.34 3.7 -9 2 C-5.48746854 -0.34168764 -4.13530644 -0.49623677 0 0 Z " fill="#E2E9ED" transform="translate(734,682)"/>
<path d="M0 0 C6.40141012 -0.51211281 9.98010898 -0.11888494 15 4 C14.01 5.485 14.01 5.485 13 7 C12.38125 6.835 11.7625 6.67 11.125 6.5 C6.74529271 5.79924683 2.42571011 5.92265749 -2 6 C-2 5.01 -2 4.02 -2 3 C-1.34 3 -0.68 3 0 3 C0 2.01 0 1.02 0 0 Z " fill="#335FA8" transform="translate(1083,494)"/>
<path d="M0 0 C2.64 0 5.28 0 8 0 C8.66 0.66 9.32 1.32 10 2 C9.34 2 8.68 2 8 2 C8 3.65 8 5.3 8 7 C6.35 7.33 4.7 7.66 3 8 C2.957279 6.33388095 2.95936168 4.66617115 3 3 C3.33 2.67 3.66 2.34 4 2 C3.01 1.67 2.02 1.34 1 1 C1 6.28 1 11.56 1 17 C3.31 17 5.62 17 8 17 C8 17.33 8 17.66 8 18 C5.36 18 2.72 18 0 18 C0 12.06 0 6.12 0 0 Z " fill="#545452" transform="translate(765,510)"/>
<path d="M0 0 C2.5 0.25 2.5 0.25 4.5 2.25 C4.17028521 5.54714793 3.8773161 6.8726839 1.5 9.25 C-0.76274788 8.89644564 -2.45088852 8.27455574 -4.5 7.25 C-4.625 4.875 -4.625 4.875 -4.5 2.25 C-2.5 0.25 -2.5 0.25 0 0 Z " fill="#202C65" transform="translate(514.5,382.75)"/>
<path d="M0 0 C2.5 0.25 2.5 0.25 4.5 2.25 C3.94444444 6.80555556 3.94444444 6.80555556 2.5 8.25 C0.50041636 8.29080783 -1.50045254 8.29254356 -3.5 8.25 C-4.125 5.375 -4.125 5.375 -4.5 2.25 C-2.5 0.25 -2.5 0.25 0 0 Z " fill="#2A3469" transform="translate(486.5,329.75)"/>
<path d="M0 0 C8 0 8 0 10 1 C10 2.98 10 4.96 10 7 C9.01 7 8.02 7 7 7 C6.67 5.68 6.34 4.36 6 3 C4.68 2.67 3.36 2.34 2 2 C2 3.98 2 5.96 2 8 C2.99 8.33 3.98 8.66 5 9 C3.68 9 2.36 9 1 9 C1 11.31 1 13.62 1 16 C0.67 16 0.34 16 0 16 C0 10.72 0 5.44 0 0 Z " fill="#20211F" transform="translate(824,511)"/>
<path d="M0 0 C2.97 0 5.94 0 9 0 C9 0.99 9 1.98 9 3 C7.02 3 5.04 3 3 3 C3 4.32 3 5.64 3 7 C4.65 7 6.3 7 8 7 C8.33 7.99 8.66 8.98 9 10 C7.02 10 5.04 10 3 10 C3 11.65 3 13.3 3 15 C2.67 15 2.34 15 2 15 C1.7834375 13.2365625 1.7834375 13.2365625 1.5625 11.4375 C1.08589824 7.61787728 0.55546456 3.80889981 0 0 Z " fill="#454544" transform="translate(810,510)"/>
<path d="M0 0 C3 0.125 3 0.125 4 1.125 C4.1875 3.5625 4.1875 3.5625 4 6.125 C3.34 6.785 2.68 7.445 2 8.125 C-1.125 7.75 -1.125 7.75 -4 7.125 C-4.04254356 5.12545254 -4.04080783 3.12458364 -4 1.125 C-3 0.125 -3 0.125 0 0 Z " fill="#EAEBEE" transform="translate(511,327.875)"/>
<path d="M0 0 C0.99 0 1.98 0 3 0 C3 0.99 3 1.98 3 3 C2.34 3 1.68 3 1 3 C0.855625 3.763125 0.71125 4.52625 0.5625 5.3125 C0 8 0 8 -1 11 C0.98 11 2.96 11 5 11 C5 11.33 5 11.66 5 12 C3.02 12.33 1.04 12.66 -1 13 C-1.33 13.99 -1.66 14.98 -2 16 C-2.99 16 -3.98 16 -5 16 C-3.90301833 10.30860098 -2.45946923 5.25432063 0 0 Z " fill="#212121" transform="translate(696,511)"/>
<path d="M0 0 C0.99 0 1.98 0 3 0 C6.42857143 8.42857143 6.42857143 8.42857143 6 13 C6.99 13.33 7.98 13.66 9 14 C9 14.66 9 15.32 9 16 C7.68 16 6.36 16 5 16 C4.34956281 14.27255984 3.70485156 12.5429631 3.0625 10.8125 C2.52302734 9.36810547 2.52302734 9.36810547 1.97265625 7.89453125 C1.08843438 5.2631722 0.47431414 2.73105092 0 0 Z " fill="#2B2B2B" transform="translate(676,511)"/>
<path d="M0 0 C2.375 0.1875 2.375 0.1875 5 1 C7.38038888 4.85396294 7.17371424 8.5702869 7 13 C4.43135272 11.71567636 4.053461 10.63365249 3 8 C3 6.68 3 5.36 3 4 C2.34 4 1.68 4 1 4 C0.34 5.32 -0.32 6.64 -1 8 C-0.67 5.36 -0.34 2.72 0 0 Z " fill="#363635" transform="translate(842,510)"/>
<path d="M0 0 C0.33 1.32 0.66 2.64 1 4 C1.99 3.67 2.98 3.34 4 3 C5.25664978 5.90600261 6 7.79604584 6 11 C3 11 0 11 -3 11 C-2.01 7.37 -1.02 3.74 0 0 Z " fill="#5A5A59" transform="translate(841,511)"/>
<path d="M0 0 C0.99 0.66 1.98 1.32 3 2 C3 2.66 3 3.32 3 4 C2.39671875 3.97679687 1.7934375 3.95359375 1.171875 3.9296875 C0.37265625 3.91164063 -0.4265625 3.89359375 -1.25 3.875 C-2.43335938 3.84019531 -2.43335938 3.84019531 -3.640625 3.8046875 C-6.27116062 4.02244707 -7.81832878 4.51958024 -10 6 C-10.81584568 9.05908413 -10.81584568 9.05908413 -11 12 C-11.33 12 -11.66 12 -12 12 C-12.4206933 7.70892835 -12.45543836 5.64865463 -9.9375 2.0625 C-6.29752588 -0.49322651 -4.36253463 -0.56551375 0 0 Z " fill="#535353" transform="translate(865,510)"/>
<path d="M0 0 C0 0.66 0 1.32 0 2 C-2.31 2 -4.62 2 -7 2 C-7 3.65 -7 5.3 -7 7 C-4.69 7 -2.38 7 0 7 C0 7.66 0 8.32 0 9 C-2.97 9 -5.94 9 -9 9 C-9 6.36 -9 3.72 -9 1 C-6.04335481 -0.4783226 -3.25770263 -0.06032783 0 0 Z " fill="#292928" transform="translate(881,518)"/>
<path d="M0 0 C0.3125 2.6875 0.3125 2.6875 0 6 C-2.5 8.875 -2.5 8.875 -5 11 C-6.61949011 8.42786866 -7.04408751 7.32330841 -6.625 4.25 C-6.41875 3.5075 -6.2125 2.765 -6 2 C-5.34 2.33 -4.68 2.66 -4 3 C-3.525625 2.505 -3.05125 2.01 -2.5625 1.5 C-1 0 -1 0 0 0 Z " fill="#3561A9" transform="translate(1099,512)"/>
<path d="M0 0 C0.99 0 1.98 0 3 0 C3 4.62 3 9.24 3 14 C2.01 14 1.02 14 0 14 C0 9.38 0 4.76 0 0 Z " fill="#252524" transform="translate(724,511)"/>
<path d="M0 0 C1.32 0 2.64 0 4 0 C4.38133299 1.9914056 4.71325582 3.99279077 5 6 C4 7 4 7 1.4375 7.0625 C0.2309375 7.0315625 0.2309375 7.0315625 -1 7 C-1.625 4.625 -1.625 4.625 -2 2 C-1.34 1.34 -0.68 0.68 0 0 Z " fill="#2F386D" transform="translate(507,403)"/>
<path d="M0 0 C2.0625 0.4375 2.0625 0.4375 4 1 C4.33 2.65 4.66 4.3 5 6 C0.25 7.125 0.25 7.125 -2 6 C-1.125 1.125 -1.125 1.125 0 0 Z " fill="#E1E2EA" transform="translate(530,372)"/>
<path d="M0 0 C2.31 0 4.62 0 7 0 C7 2.97 7 5.94 7 9 C6.67 8.34 6.34 7.68 6 7 C5.01 7 4.02 7 3 7 C3 5.68 3 4.36 3 3 C2.01 3 1.02 3 0 3 C0 2.01 0 1.02 0 0 Z " fill="#474747" transform="translate(861,518)"/>
<path d="M0 0 C1.65 0 3.3 0 5 0 C4.34 0.66 3.68 1.32 3 2 C2.35232207 4.57061311 2.35232207 4.57061311 2 7 C3.65 7 5.3 7 7 7 C7 7.33 7 7.66 7 8 C5.35 8 3.7 8 2 8 C2 10.31 2 12.62 2 15 C1.34 15 0.68 15 0 15 C0 10.05 0 5.1 0 0 Z " fill="#141412" transform="translate(766,511)"/>
<path d="M0 0 C0.66 0.33 1.32 0.66 2 1 C1.67 2.98 1.34 4.96 1 7 C2.65 7.33 4.3 7.66 6 8 C5.401875 8.144375 4.80375 8.28875 4.1875 8.4375 C2.43849596 8.8872439 0.71322977 9.42892341 -1 10 C-1 12.64 -1 15.28 -1 18 C-1.33 18 -1.66 18 -2 18 C-2.33 14.04 -2.66 10.08 -3 6 C-2.34 5.67 -1.68 5.34 -1 5 C-0.34444881 2.47266765 -0.34444881 2.47266765 0 0 Z " fill="#3D4576" transform="translate(527,371)"/>
<path d="M0 0 C2.875 -0.125 2.875 -0.125 6 0 C8 2 8 2 8.125 5.125 C8.08375 6.07375 8.0425 7.0225 8 8 C6.68 8 5.36 8 4 8 C3.34 6.68 2.68 5.36 2 4 C2.99 3.67 3.98 3.34 5 3 C5 2.34 5 1.68 5 1 C3.02 1.33 1.04 1.66 -1 2 C-0.67 1.34 -0.34 0.68 0 0 Z " fill="#2D366B" transform="translate(519,411)"/>
<path d="M0 0 C2.125 0.375 2.125 0.375 4 1 C4.625 2.875 4.625 2.875 5 5 C4.34 5.66 3.68 6.32 3 7 C0.875 6.625 0.875 6.625 -1 6 C-1.625 4.125 -1.625 4.125 -2 2 C-1.34 1.34 -0.68 0.68 0 0 Z " fill="#3F477A" transform="translate(472,317)"/>
<path d="M0 0 C1.65 0.33 3.3 0.66 5 1 C5 2.65 5 4.3 5 6 C3.125 6.625 3.125 6.625 1 7 C0.34 6.34 -0.32 5.68 -1 5 C-0.625 2.375 -0.625 2.375 0 0 Z " fill="#2E5AA5" transform="translate(1105,486)"/>
<path d="M0 0 C1.98 0 3.96 0 6 0 C6.66 1.65 7.32 3.3 8 5 C5.13822943 6.43088528 3.06624227 5.59991697 0 5 C0 3.35 0 1.7 0 0 Z " fill="#A5A5A4" transform="translate(711,513)"/>
<path d="M0 0 C3.2542015 2.83430453 4.5206753 4.68607774 5 9 C3.68 9 2.36 9 1 9 C0.01 6.36 -0.98 3.72 -2 1 C-1.34 0.67 -0.68 0.34 0 0 Z " fill="#464646" transform="translate(716,519)"/>
<path d="M0 0 C1.67542976 0.28604898 3.34385343 0.61781233 5 1 C4.67 2.65 4.34 4.3 4 6 C2.35 6 0.7 6 -1 6 C-1.042721 4.33388095 -1.04063832 2.66617115 -1 1 C-0.67 0.67 -0.34 0.34 0 0 Z " fill="#2D376C" transform="translate(533,441)"/>
<path d="M0 0 C1.65 0.33 3.3 0.66 5 1 C4.67 2.65 4.34 4.3 4 6 C2.35 5.67 0.7 5.34 -1 5 C-0.67 3.35 -0.34 1.7 0 0 Z " fill="#262E63" transform="translate(535,490)"/>
<path d="M0 0 C1.65 0.33 3.3 0.66 5 1 C4.67 2.65 4.34 4.3 4 6 C2.35 5.67 0.7 5.34 -1 5 C-0.67 3.35 -0.34 1.7 0 0 Z " fill="#293166" transform="translate(500,389)"/>
<path d="M0 0 C1.65 0.33 3.3 0.66 5 1 C4.67 2.65 4.34 4.3 4 6 C2.35 5.67 0.7 5.34 -1 5 C-0.67 3.35 -0.34 1.7 0 0 Z " fill="#363E70" transform="translate(484,349)"/>
<path d="M0 0 C1.98 0 3.96 0 6 0 C6 1.65 6 3.3 6 5 C4.02 5 2.04 5 0 5 C0 3.35 0 1.7 0 0 Z " fill="#345F80" transform="translate(1144,599)"/>
<path d="M0 0 C1.98 0 3.96 0 6 0 C6 1.65 6 3.3 6 5 C4.02 5 2.04 5 0 5 C0 3.35 0 1.7 0 0 Z " fill="#345F80" transform="translate(1134,599)"/>
<path d="M0 0 C1.98 0 3.96 0 6 0 C6 1.65 6 3.3 6 5 C4.02 5 2.04 5 0 5 C0 3.35 0 1.7 0 0 Z " fill="#345F80" transform="translate(1124,599)"/>
<path d="M0 0 C1.98 0 3.96 0 6 0 C6 1.65 6 3.3 6 5 C4.02 5 2.04 5 0 5 C0 3.35 0 1.7 0 0 Z " fill="#345F80" transform="translate(1114,599)"/>
<path d="M0 0 C1.98 0 3.96 0 6 0 C6 1.65 6 3.3 6 5 C4.02 5 2.04 5 0 5 C0 3.35 0 1.7 0 0 Z " fill="#345F80" transform="translate(1104,599)"/>
<path d="M0 0 C1.98 0 3.96 0 6 0 C6 1.65 6 3.3 6 5 C4.02 5 2.04 5 0 5 C0 3.35 0 1.7 0 0 Z " fill="#345F80" transform="translate(1094,599)"/>
<path d="M0 0 C1.98 0 3.96 0 6 0 C6 1.65 6 3.3 6 5 C4.02 5 2.04 5 0 5 C0 3.35 0 1.7 0 0 Z " fill="#345F80" transform="translate(1084,599)"/>
<path d="M0 0 C1.98 0 3.96 0 6 0 C6 1.65 6 3.3 6 5 C4.02 5 2.04 5 0 5 C0 3.35 0 1.7 0 0 Z " fill="#345F80" transform="translate(1074,599)"/>
<path d="M0 0 C1.98 0 3.96 0 6 0 C6 1.65 6 3.3 6 5 C4.02 5 2.04 5 0 5 C0 3.35 0 1.7 0 0 Z " fill="#345F80" transform="translate(1064,599)"/>
<path d="M0 0 C1.98 0 3.96 0 6 0 C6 1.65 6 3.3 6 5 C4.02 5 2.04 5 0 5 C0 3.35 0 1.7 0 0 Z " fill="#345F80" transform="translate(1054,599)"/>
<path d="M0 0 C1.98 0 3.96 0 6 0 C6 1.65 6 3.3 6 5 C4.02 5 2.04 5 0 5 C0 3.35 0 1.7 0 0 Z " fill="#345F80" transform="translate(1044,599)"/>
<path d="M0 0 C1.98 0 3.96 0 6 0 C6 1.65 6 3.3 6 5 C4.02 5 2.04 5 0 5 C0 3.35 0 1.7 0 0 Z " fill="#345F80" transform="translate(1034,599)"/>
<path d="M0 0 C1.98 0 3.96 0 6 0 C6 1.65 6 3.3 6 5 C4.02 5 2.04 5 0 5 C0 3.35 0 1.7 0 0 Z " fill="#345F80" transform="translate(1024,599)"/>
<path d="M0 0 C1.98 0 3.96 0 6 0 C6 1.65 6 3.3 6 5 C4.02 5 2.04 5 0 5 C0 3.35 0 1.7 0 0 Z " fill="#345F80" transform="translate(1014,599)"/>
<path d="M0 0 C1.98 0 3.96 0 6 0 C6 1.65 6 3.3 6 5 C4.02 5 2.04 5 0 5 C0 3.35 0 1.7 0 0 Z " fill="#345F80" transform="translate(1004,599)"/>
<path d="M0 0 C1.98 0 3.96 0 6 0 C6 1.65 6 3.3 6 5 C4.02 5 2.04 5 0 5 C0 3.35 0 1.7 0 0 Z " fill="#345F80" transform="translate(994,599)"/>
<path d="M0 0 C1.98 0 3.96 0 6 0 C6 1.65 6 3.3 6 5 C4.02 5 2.04 5 0 5 C0 3.35 0 1.7 0 0 Z " fill="#345F80" transform="translate(984,599)"/>
<path d="M0 0 C1.98 0 3.96 0 6 0 C6 1.65 6 3.3 6 5 C4.02 5 2.04 5 0 5 C0 3.35 0 1.7 0 0 Z " fill="#345F80" transform="translate(974,599)"/>
<path d="M0 0 C1.98 0 3.96 0 6 0 C6 1.65 6 3.3 6 5 C4.02 5 2.04 5 0 5 C0 3.35 0 1.7 0 0 Z " fill="#345F80" transform="translate(964,599)"/>
<path d="M0 0 C1.98 0 3.96 0 6 0 C6 1.65 6 3.3 6 5 C4.02 5 2.04 5 0 5 C0 3.35 0 1.7 0 0 Z " fill="#345F80" transform="translate(954,599)"/>
<path d="M0 0 C1.98 0 3.96 0 6 0 C6 1.65 6 3.3 6 5 C4.02 5 2.04 5 0 5 C0 3.35 0 1.7 0 0 Z " fill="#345F80" transform="translate(944,599)"/>
<path d="M0 0 C1.98 0 3.96 0 6 0 C6 1.65 6 3.3 6 5 C4.02 5 2.04 5 0 5 C0 3.35 0 1.7 0 0 Z " fill="#345F80" transform="translate(934,599)"/>
<path d="M0 0 C1.98 0 3.96 0 6 0 C6 1.65 6 3.3 6 5 C4.02 5 2.04 5 0 5 C0 3.35 0 1.7 0 0 Z " fill="#345F80" transform="translate(924,599)"/>
<path d="M0 0 C1.98 0 3.96 0 6 0 C6 1.65 6 3.3 6 5 C4.02 5 2.04 5 0 5 C0 3.35 0 1.7 0 0 Z " fill="#345F80" transform="translate(914,599)"/>
<path d="M0 0 C1.98 0 3.96 0 6 0 C6 1.65 6 3.3 6 5 C4.02 5 2.04 5 0 5 C0 3.35 0 1.7 0 0 Z " fill="#345F80" transform="translate(904,599)"/>
<path d="M0 0 C1.98 0 3.96 0 6 0 C6 1.65 6 3.3 6 5 C4.02 5 2.04 5 0 5 C0 3.35 0 1.7 0 0 Z " fill="#345F80" transform="translate(894,599)"/>
<path d="M0 0 C1.98 0 3.96 0 6 0 C6 1.65 6 3.3 6 5 C4.02 5 2.04 5 0 5 C0 3.35 0 1.7 0 0 Z " fill="#345F80" transform="translate(884,599)"/>
<path d="M0 0 C1.98 0 3.96 0 6 0 C6 1.65 6 3.3 6 5 C4.02 5 2.04 5 0 5 C0 3.35 0 1.7 0 0 Z " fill="#345F80" transform="translate(874,599)"/>
<path d="M0 0 C1.98 0 3.96 0 6 0 C6 1.65 6 3.3 6 5 C4.02 5 2.04 5 0 5 C0 3.35 0 1.7 0 0 Z " fill="#345F80" transform="translate(864,599)"/>
<path d="M0 0 C1.98 0 3.96 0 6 0 C6 1.65 6 3.3 6 5 C4.02 5 2.04 5 0 5 C0 3.35 0 1.7 0 0 Z " fill="#345F80" transform="translate(854,599)"/>
<path d="M0 0 C1.98 0 3.96 0 6 0 C6 1.65 6 3.3 6 5 C4.02 5 2.04 5 0 5 C0 3.35 0 1.7 0 0 Z " fill="#345F80" transform="translate(844,599)"/>
<path d="M0 0 C1.98 0 3.96 0 6 0 C6 1.65 6 3.3 6 5 C4.02 5 2.04 5 0 5 C0 3.35 0 1.7 0 0 Z " fill="#345F80" transform="translate(834,599)"/>
<path d="M0 0 C1.98 0 3.96 0 6 0 C6 1.65 6 3.3 6 5 C4.02 5 2.04 5 0 5 C0 3.35 0 1.7 0 0 Z " fill="#345F80" transform="translate(824,599)"/>
<path d="M0 0 C1.98 0 3.96 0 6 0 C6 1.65 6 3.3 6 5 C4.02 5 2.04 5 0 5 C0 3.35 0 1.7 0 0 Z " fill="#345F80" transform="translate(814,599)"/>
<path d="M0 0 C1.98 0 3.96 0 6 0 C6 1.65 6 3.3 6 5 C4.02 5 2.04 5 0 5 C0 3.35 0 1.7 0 0 Z " fill="#345F80" transform="translate(804,599)"/>
<path d="M0 0 C1.98 0 3.96 0 6 0 C6 1.65 6 3.3 6 5 C4.02 5 2.04 5 0 5 C0 3.35 0 1.7 0 0 Z " fill="#345F80" transform="translate(794,599)"/>
<path d="M0 0 C1.98 0 3.96 0 6 0 C6 1.65 6 3.3 6 5 C4.02 5 2.04 5 0 5 C0 3.35 0 1.7 0 0 Z " fill="#345F80" transform="translate(784,599)"/>
<path d="M0 0 C1.98 0 3.96 0 6 0 C6 1.65 6 3.3 6 5 C4.02 5 2.04 5 0 5 C0 3.35 0 1.7 0 0 Z " fill="#345F80" transform="translate(774,599)"/>
<path d="M0 0 C1.98 0 3.96 0 6 0 C6 1.65 6 3.3 6 5 C4.02 5 2.04 5 0 5 C0 3.35 0 1.7 0 0 Z " fill="#345F80" transform="translate(764,599)"/>
<path d="M0 0 C1.98 0 3.96 0 6 0 C6 1.65 6 3.3 6 5 C4.02 5 2.04 5 0 5 C0 3.35 0 1.7 0 0 Z " fill="#345F80" transform="translate(754,599)"/>
<path d="M0 0 C1.98 0 3.96 0 6 0 C6 1.65 6 3.3 6 5 C4.02 5 2.04 5 0 5 C0 3.35 0 1.7 0 0 Z " fill="#345F80" transform="translate(744,599)"/>
<path d="M0 0 C1.98 0 3.96 0 6 0 C6 1.65 6 3.3 6 5 C4.02 5 2.04 5 0 5 C0 3.35 0 1.7 0 0 Z " fill="#345F80" transform="translate(734,599)"/>
<path d="M0 0 C1.98 0 3.96 0 6 0 C6 1.65 6 3.3 6 5 C4.02 5 2.04 5 0 5 C0 3.35 0 1.7 0 0 Z " fill="#345F80" transform="translate(724,599)"/>
<path d="M0 0 C1.98 0 3.96 0 6 0 C6 1.65 6 3.3 6 5 C4.02 5 2.04 5 0 5 C0 3.35 0 1.7 0 0 Z " fill="#345F80" transform="translate(714,599)"/>
<path d="M0 0 C1.98 0 3.96 0 6 0 C6 1.65 6 3.3 6 5 C4.02 5 2.04 5 0 5 C0 3.35 0 1.7 0 0 Z " fill="#345F80" transform="translate(704,599)"/>
<path d="M0 0 C1.98 0 3.96 0 6 0 C6 1.65 6 3.3 6 5 C4.02 5 2.04 5 0 5 C0 3.35 0 1.7 0 0 Z " fill="#345F80" transform="translate(694,599)"/>
<path d="M0 0 C1.98 0 3.96 0 6 0 C6 1.65 6 3.3 6 5 C4.02 5 2.04 5 0 5 C0 3.35 0 1.7 0 0 Z " fill="#345F80" transform="translate(684,599)"/>
<path d="M0 0 C1.98 0 3.96 0 6 0 C6 1.65 6 3.3 6 5 C4.02 5 2.04 5 0 5 C0 3.35 0 1.7 0 0 Z " fill="#345F80" transform="translate(674,599)"/>
<path d="M0 0 C1.98 0 3.96 0 6 0 C6 1.65 6 3.3 6 5 C4.02 5 2.04 5 0 5 C0 3.35 0 1.7 0 0 Z " fill="#345F80" transform="translate(664,599)"/>
<path d="M0 0 C1.98 0 3.96 0 6 0 C6 1.65 6 3.3 6 5 C4.02 5 2.04 5 0 5 C0 3.35 0 1.7 0 0 Z " fill="#345F80" transform="translate(654,599)"/>
<path d="M0 0 C1.98 0 3.96 0 6 0 C6 1.65 6 3.3 6 5 C4.02 5 2.04 5 0 5 C0 3.35 0 1.7 0 0 Z " fill="#345F80" transform="translate(644,599)"/>
<path d="M0 0 C1.98 0 3.96 0 6 0 C6 1.65 6 3.3 6 5 C4.02 5 2.04 5 0 5 C0 3.35 0 1.7 0 0 Z " fill="#345F80" transform="translate(634,599)"/>
<path d="M0 0 C1.98 0 3.96 0 6 0 C6 1.65 6 3.3 6 5 C4.02 5 2.04 5 0 5 C0 3.35 0 1.7 0 0 Z " fill="#345F80" transform="translate(624,599)"/>
<path d="M0 0 C1.98 0 3.96 0 6 0 C6 1.65 6 3.3 6 5 C4.02 5 2.04 5 0 5 C0 3.35 0 1.7 0 0 Z " fill="#345F80" transform="translate(614,599)"/>
<path d="M0 0 C1.98 0 3.96 0 6 0 C6 1.65 6 3.3 6 5 C4.02 5 2.04 5 0 5 C0 3.35 0 1.7 0 0 Z " fill="#345F80" transform="translate(604,599)"/>
<path d="M0 0 C1.98 0 3.96 0 6 0 C6 1.65 6 3.3 6 5 C4.02 5 2.04 5 0 5 C0 3.35 0 1.7 0 0 Z " fill="#345F80" transform="translate(594,599)"/>
<path d="M0 0 C1.98 0 3.96 0 6 0 C6 1.65 6 3.3 6 5 C4.02 5 2.04 5 0 5 C0 3.35 0 1.7 0 0 Z " fill="#345F80" transform="translate(584,599)"/>
<path d="M0 0 C1.98 0 3.96 0 6 0 C6 1.65 6 3.3 6 5 C4.02 5 2.04 5 0 5 C0 3.35 0 1.7 0 0 Z " fill="#345F80" transform="translate(574,599)"/>
<path d="M0 0 C1.98 0 3.96 0 6 0 C6 1.65 6 3.3 6 5 C4.02 5 2.04 5 0 5 C0 3.35 0 1.7 0 0 Z " fill="#345F80" transform="translate(564,599)"/>
<path d="M0 0 C1.98 0 3.96 0 6 0 C6 1.65 6 3.3 6 5 C4.02 5 2.04 5 0 5 C0 3.35 0 1.7 0 0 Z " fill="#345F80" transform="translate(554,599)"/>
<path d="M0 0 C1.98 0 3.96 0 6 0 C6 1.65 6 3.3 6 5 C4.02 5 2.04 5 0 5 C0 3.35 0 1.7 0 0 Z " fill="#345F80" transform="translate(544,599)"/>
<path d="M0 0 C1.98 0 3.96 0 6 0 C6 1.65 6 3.3 6 5 C4.02 5 2.04 5 0 5 C0 3.35 0 1.7 0 0 Z " fill="#345F80" transform="translate(534,599)"/>
<path d="M0 0 C1.98 0 3.96 0 6 0 C6 1.65 6 3.3 6 5 C4.02 5 2.04 5 0 5 C0 3.35 0 1.7 0 0 Z " fill="#345F80" transform="translate(524,599)"/>
<path d="M0 0 C1.98 0 3.96 0 6 0 C6 1.65 6 3.3 6 5 C4.02 5 2.04 5 0 5 C0 3.35 0 1.7 0 0 Z " fill="#345F80" transform="translate(514,599)"/>
<path d="M0 0 C1.98 0 3.96 0 6 0 C6 1.65 6 3.3 6 5 C4.02 5 2.04 5 0 5 C0 3.35 0 1.7 0 0 Z " fill="#346080" transform="translate(504,599)"/>
<path d="M0 0 C1.98 0 3.96 0 6 0 C6 1.65 6 3.3 6 5 C4.02 5 2.04 5 0 5 C0 3.35 0 1.7 0 0 Z " fill="#345F80" transform="translate(494,599)"/>
<path d="M0 0 C1.98 0 3.96 0 6 0 C6 1.65 6 3.3 6 5 C4.02 5 2.04 5 0 5 C0 3.35 0 1.7 0 0 Z " fill="#345F80" transform="translate(484,599)"/>
<path d="M0 0 C1.98 0 3.96 0 6 0 C6 1.65 6 3.3 6 5 C4.02 5 2.04 5 0 5 C0 3.35 0 1.7 0 0 Z " fill="#345F80" transform="translate(474,599)"/>
<path d="M0 0 C1.98 0 3.96 0 6 0 C6 1.65 6 3.3 6 5 C4.02 5 2.04 5 0 5 C0 3.35 0 1.7 0 0 Z " fill="#345F80" transform="translate(464,599)"/>
<path d="M0 0 C1.98 0 3.96 0 6 0 C6 1.65 6 3.3 6 5 C4.02 5 2.04 5 0 5 C0 3.35 0 1.7 0 0 Z " fill="#345F80" transform="translate(454,599)"/>
<path d="M0 0 C1.98 0 3.96 0 6 0 C6 1.65 6 3.3 6 5 C4.02 5 2.04 5 0 5 C0 3.35 0 1.7 0 0 Z " fill="#345F80" transform="translate(444,599)"/>
<path d="M0 0 C2.0625 0.4375 2.0625 0.4375 4 1 C3.67 2.65 3.34 4.3 3 6 C1.35 5.67 -0.3 5.34 -2 5 C-1.125 1.125 -1.125 1.125 0 0 Z " fill="#D9DBE5" transform="translate(542,410)"/>
<path d="M0 0 C0.33 0 0.66 0 1 0 C1 4.95 1 9.9 1 15 C0.01 15 -0.98 15 -2 15 C-2 14.34 -2 13.68 -2 13 C-2.66 13 -3.32 13 -4 13 C-4 12.01 -4 11.02 -4 10 C-2.68 10.33 -1.36 10.66 0 11 C0 7.37 0 3.74 0 0 Z " fill="#151514" transform="translate(753,511)"/>
<path d="M0 0 C0.75 1.75 0.75 1.75 1 4 C-1.05226666 6.76266666 -2.41531259 7.8405398 -5.75 8.75 C-6.86375 8.87375 -6.86375 8.87375 -8 9 C-7.04270084 7.87411986 -6.08412105 6.7493285 -5.125 5.625 C-4.59132813 4.99851562 -4.05765625 4.37203125 -3.5078125 3.7265625 C-2.38567993 2.44163349 -1.20628025 1.20628025 0 0 Z " fill="#293369" transform="translate(692,354)"/>
<path d="M0 0 C1.65 0 3.3 0 5 0 C5.5625 1.9375 5.5625 1.9375 6 4 C5 5 5 5 2.4375 5.0625 C1.2309375 5.0315625 1.2309375 5.0315625 0 5 C0 3.35 0 1.7 0 0 Z " fill="#D2D2D2" transform="translate(768,520)"/>
<path d="M0 0 C0.33 0.66 0.66 1.32 1 2 C-3.14285714 8.42857143 -3.14285714 8.42857143 -6 11 C-6.99 10.67 -7.98 10.34 -9 10 C-6.03 6.7 -3.06 3.4 0 0 Z " fill="#353D72" transform="translate(823,215)"/>
<path d="M0 0 C1.67542976 0.28604898 3.34385343 0.61781233 5 1 C5 2.32 5 3.64 5 5 C3.35 5 1.7 5 0 5 C-0.5625 3.0625 -0.5625 3.0625 -1 1 C-0.67 0.67 -0.34 0.34 0 0 Z " fill="#E5E6EC" transform="translate(512,352)"/>
<path d="M0 0 C0 3.83764027 -1.26535335 5.11486085 -3.5 8.1875 C-4.1496875 9.08855469 -4.799375 9.98960937 -5.46875 10.91796875 C-5.9740625 11.60503906 -6.479375 12.29210937 -7 13 C-7.99 12.34 -8.98 11.68 -10 11 C-6.7 7.37 -3.4 3.74 0 0 Z " fill="#434877" transform="translate(879,156)"/>
<path d="M0 0 C0.33 0.99 0.66 1.98 1 3 C3.01508358 3.73323796 3.01508358 3.73323796 5 4 C4.071875 4.12375 4.071875 4.12375 3.125 4.25 C0.81562433 4.81258459 0.81562433 4.81258459 -0.25 7.0625 C-0.4975 7.701875 -0.745 8.34125 -1 9 C-1.66 9 -2.32 9 -3 9 C-3.26218749 5.85375007 -3.24754367 4.38162983 -1.5 1.6875 C-1.005 1.130625 -0.51 0.57375 0 0 Z " fill="#2C2C2C" transform="translate(840,519)"/>
<path d="M0 0 C1.98 0.495 1.98 0.495 4 1 C2.68 4.63 1.36 8.26 0 12 C-1.15866723 7.36533108 -0.70010994 4.66739961 0 0 Z " fill="#272727" transform="translate(803,511)"/>
<path d="M0 0 C2.97 0 5.94 0 9 0 C9 0.66 9 1.32 9 2 C6.69 2 4.38 2 2 2 C2 3.32 2 4.64 2 6 C1.34 6 0.68 6 0 6 C0 4.02 0 2.04 0 0 Z " fill="#1E1E1E" transform="translate(872,511)"/>
<path d="M0 0 C1.65 0.33 3.3 0.66 5 1 C4.67 2.32 4.34 3.64 4 5 C2.35 4.67 0.7 4.34 -1 4 C-0.67 2.68 -0.34 1.36 0 0 Z " fill="#363F72" transform="translate(550,502)"/>
<path d="M0 0 C1.98 0.495 1.98 0.495 4 1 C3.67 2.65 3.34 4.3 3 6 C1.68 5.67 0.36 5.34 -1 5 C-0.67 3.35 -0.34 1.7 0 0 Z " fill="#E3E5ED" transform="translate(566,473)"/>
<path d="M0 0 C1.65 0.33 3.3 0.66 5 1 C4.67 2.32 4.34 3.64 4 5 C2.35 4.67 0.7 4.34 -1 4 C-0.67 2.68 -0.34 1.36 0 0 Z " fill="#ECEDF1" transform="translate(552,460)"/>
<path d="M0 0 C2.5 0.25 2.5 0.25 4.5 2.25 C4.125 4.375 4.125 4.375 3.5 6.25 C3.17 5.26 2.84 4.27 2.5 3.25 C0.06282742 3.52034634 0.06282742 3.52034634 -2.5 4.25 C-3.16 5.24 -3.82 6.23 -4.5 7.25 C-4.625 4.875 -4.625 4.875 -4.5 2.25 C-2.5 0.25 -2.5 0.25 0 0 Z " fill="#4F5683" transform="translate(514.5,382.75)"/>
<path d="M0 0 C0.99 0.495 0.99 0.495 2 1 C2 1.99 2 2.98 2 4 C4.31 4 6.62 4 9 4 C9 4.66 9 5.32 9 6 C6.03 6 3.06 6 0 6 C0 4.02 0 2.04 0 0 Z " fill="#20201F" transform="translate(781,521)"/>
<path d="M0 0 C1.32 0.66 2.64 1.32 4 2 C3.6875 3.9375 3.6875 3.9375 3 6 C2.01 6.33 1.02 6.66 0 7 C-0.38133299 5.0085944 -0.71325582 3.00720923 -1 1 C-0.67 0.67 -0.34 0.34 0 0 Z " fill="#2352A1" transform="translate(1094,509)"/>
<path d="M0 0 C0.33 0.66 0.66 1.32 1 2 C3.32156597 2.40729228 5.6568787 2.74438677 8 3 C6 5 6 5 3 5.3125 C1.515 5.1578125 1.515 5.1578125 0 5 C-0.66 4.01 -1.32 3.02 -2 2 C-1.34 2 -0.68 2 0 2 C0 1.34 0 0.68 0 0 Z " fill="#424242" transform="translate(727,523)"/>
<path d="M0 0 C1.32 0 2.64 0 4 0 C4.66 2.64 5.32 5.28 6 8 C5.01 7.01 4.02 6.02 3 5 C2.01 5.495 2.01 5.495 1 6 C0.67 4.02 0.34 2.04 0 0 Z " fill="#555554" transform="translate(792,510)"/>
<path d="M0 0 C0.33 0 0.66 0 1 0 C1.66 2.97 2.32 5.94 3 9 C2.34 9 1.68 9 1 9 C0.67 9.99 0.34 10.98 0 12 C-0.66 9.36 -1.32 6.72 -2 4 C-1.34 4 -0.68 4 0 4 C0 2.68 0 1.36 0 0 Z " fill="#E4E4E4" transform="translate(852,516)"/>
<path d="M0 0 C2.475 0.495 2.475 0.495 5 1 C4.67 2.32 4.34 3.64 4 5 C2.68 5 1.36 5 0 5 C0 3.35 0 1.7 0 0 Z " fill="#D6D6D5" transform="translate(826,513)"/>
<path d="M0 0 C2.475 0.495 2.475 0.495 5 1 C4.67 2.32 4.34 3.64 4 5 C2.68 5 1.36 5 0 5 C0 3.35 0 1.7 0 0 Z " fill="#C6C6C4" transform="translate(768,513)"/>
<path d="M0 0 C0.33 0 0.66 0 1 0 C1 5.28 1 10.56 1 16 C0.67 15.01 0.34 14.02 0 13 C-0.66 13 -1.32 13 -2 13 C-2 12.01 -2 11.02 -2 10 C-1.34 10 -0.68 10 0 10 C0 6.7 0 3.4 0 0 Z " fill="#E1E1E1" transform="translate(779,511)"/>
<path d="M0 0 C2.625 0.375 2.625 0.375 5 1 C5.33 2.65 5.66 4.3 6 6 C5.01 5.67 4.02 5.34 3 5 C3 4.01 3 3.02 3 2 C1.35 2 -0.3 2 -2 2 C-1.34 1.34 -0.68 0.68 0 0 Z " fill="#2E2E2D" transform="translate(714,511)"/>
<path d="M0 0 C0.99 0.99 1.98 1.98 3 3 C2.34 3 1.68 3 1 3 C1.33 4.65 1.66 6.3 2 8 C-1 7 -1 7 -2.1875 4.9375 C-2.5896875 3.9784375 -2.5896875 3.9784375 -3 3 C-2.01 2.01 -1.02 1.02 0 0 Z " fill="#2653A1" transform="translate(1000,498)"/>
<path d="M0 0 C0.66 0.33 1.32 0.66 2 1 C1.525625 1.5775 1.05125 2.155 0.5625 2.75 C-0.9484867 4.92582084 -1.54036151 6.42602448 -2 9 C-2.66 8.67 -3.32 8.34 -4 8 C-4.25 5.6875 -4.25 5.6875 -4 3 C-2 1.1875 -2 1.1875 0 0 Z " fill="#424979" transform="translate(549,454)"/>
<path d="M0 0 C0.33 0.66 0.66 1.32 1 2 C-0.1875 4.625 -0.1875 4.625 -2 7 C-3.32 7 -4.64 7 -6 7 C-4.02 4.69 -2.04 2.38 0 0 Z " fill="#394174" transform="translate(738,305)"/>
<path d="M0 0 C0.99 0.33 1.98 0.66 3 1 C-0.32307692 5.8 -0.32307692 5.8 -3.75 6.8125 C-4.4925 6.874375 -5.235 6.93625 -6 7 C-4.02 4.69 -2.04 2.38 0 0 Z " fill="#353D6F" transform="translate(830,208)"/>
<path d="M0 0 C3.93846154 3.32307692 3.93846154 3.32307692 4.25 6.75 C4.1675 7.4925 4.085 8.235 4 9 C3.01 9.495 3.01 9.495 2 10 C1.34 6.7 0.68 3.4 0 0 Z " fill="#1F1F1E" transform="translate(794,514)"/>
<path d="M0 0 C2.97 0 5.94 0 9 0 C9 0.66 9 1.32 9 2 C7.329375 2.2165625 7.329375 2.2165625 5.625 2.4375 C2.17857953 2.78372035 2.17857953 2.78372035 0 4 C0 2.68 0 1.36 0 0 Z " fill="#20201E" transform="translate(781,511)"/>
<path d="M0 0 C0.33 0.66 0.66 1.32 1 2 C0.67 2.99 0.34 3.98 0 5 C1.32 5 2.64 5 4 5 C4 5.66 4 6.32 4 7 C4.99 7.66 5.98 8.32 7 9 C2.55063291 9.36075949 2.55063291 9.36075949 0.1875 7.8125 C-1.38243085 5.41628976 -1.29573841 3.80951486 -1 1 C-0.67 0.67 -0.34 0.34 0 0 Z " fill="#5D648C" transform="translate(544,463)"/>
<path d="M0 0 C4.42857143 5.14285714 4.42857143 5.14285714 5 9 C4.01 9.33 3.02 9.66 2 10 C0 3.375 0 3.375 0 0 Z " fill="#3761AA" transform="translate(1111,341)"/>
<path d="M0 0 C0.33 0.66 0.66 1.32 1 2 C-0.98 4.97 -0.98 4.97 -3 8 C-3.99 7.67 -4.98 7.34 -6 7 C-4.02 4.69 -2.04 2.38 0 0 Z " fill="#41497A" transform="translate(844,193)"/>
<path d="M0 0 C2.64 0 5.28 0 8 0 C8.33 0.99 8.66 1.98 9 3 C5.7 2.67 2.4 2.34 -1 2 C-0.67 1.34 -0.34 0.68 0 0 Z " fill="#282828" transform="translate(859,511)"/>
<path d="M0 0 C0.66 0 1.32 0 2 0 C2.33 2.31 2.66 4.62 3 7 C1.68 7 0.36 7 -1 7 C-0.67 4.69 -0.34 2.38 0 0 Z " fill="#D0D0CF" transform="translate(843,514)"/>
<path d="M0 0 C0.99 0.66 1.98 1.32 3 2 C2.34 3.32 1.68 4.64 1 6 C0.01 5.67 -0.98 5.34 -2 5 C-1.34 3.35 -0.68 1.7 0 0 Z " fill="#2151A0" transform="translate(1067,514)"/>
<path d="M0 0 C0.66 0 1.32 0 2 0 C3.85776765 3.13498292 4.20140476 5.37471432 4 9 C1.43135272 7.71567636 1.053461 6.63365249 0 4 C0 2.68 0 1.36 0 0 Z " fill="#212120" transform="translate(845,514)"/>
<path d="M0 0 C1.04449911 3.13349732 0.93423645 3.98968256 0 7 C-1.65 6.67 -3.3 6.34 -5 6 C-3.35 4.02 -1.7 2.04 0 0 Z " fill="#414978" transform="translate(862,174)"/>
<path d="M0 0 C0.66 0 1.32 0 2 0 C2.33 1.98 2.66 3.96 3 6 C1.68 6 0.36 6 -1 6 C-0.67 4.02 -0.34 2.04 0 0 Z " fill="#D9D9D8" transform="translate(697,515)"/>
<path d="M0 0 C0.99 0 1.98 0 3 0 C3 0.99 3 1.98 3 3 C2.34 3 1.68 3 1 3 C0.67 3.99 0.34 4.98 0 6 C-0.66 6 -1.32 6 -2 6 C-1.34 4.02 -0.68 2.04 0 0 Z " fill="#272726" transform="translate(696,511)"/>
<path d="M0 0 C0.99 0 1.98 0 3 0 C3 1.65 3 3.3 3 5 C2.34 5 1.68 5 1 5 C0.67 5.66 0.34 6.32 0 7 C-1.33332095 4.3333581 -0.67102033 2.83319697 0 0 Z " fill="#272725" transform="translate(773,512)"/>
<path d="M0 0 C0.99 0.33 1.98 0.66 3 1 C2.67 2.32 2.34 3.64 2 5 C-0.475 4.01 -0.475 4.01 -3 3 C-2.01 2.01 -1.02 1.02 0 0 Z " fill="#2F396C" transform="translate(846,422)"/>
<path d="M0 0 C1.98 0.495 1.98 0.495 4 1 C4 1.99 4 2.98 4 4 C2.35 4 0.7 4 -1 4 C-0.67 2.68 -0.34 1.36 0 0 Z " fill="#434977" transform="translate(493,373)"/>
<path d="M0 0 C0.75 1.6875 0.75 1.6875 1 4 C-0.8125 6.75 -0.8125 6.75 -3 9 C-3.66 9 -4.32 9 -5 9 C-3.7508258 5.54074837 -2.32472205 2.85306797 0 0 Z " fill="#D2D4DF" transform="translate(788,289)"/>
<path d="M0 0 C0 3.90838866 -1.50567876 5.11594107 -4 8 C-4.99 7.67 -5.98 7.34 -7 7 C-4.69 4.69 -2.38 2.38 0 0 Z " fill="#2E356C" transform="translate(783,258)"/>
<path d="M0 0 C2.875 0.3125 2.875 0.3125 6 1 C6.66 1.99 7.32 2.98 8 4 C6.02 4 4.04 4 2 4 C1.34 2.68 0.68 1.36 0 0 Z " fill="#4E4E4E" transform="translate(883,524)"/>
<path d="M0 0 C0.66 0 1.32 0 2 0 C2 1.32 2 2.64 2 4 C2.99 4.33 3.98 4.66 5 5 C5 5.66 5 6.32 5 7 C3.68 7 2.36 7 1 7 C0.67 4.69 0.34 2.38 0 0 Z " fill="#191917" transform="translate(680,520)"/>
<path d="M0 0 C1.06546953 3.1964086 1.07427838 5.65747276 1 9 C0.34 9 -0.32 9 -1 9 C-1.625 5.625 -1.625 5.625 -2 2 C-1.34 1.34 -0.68 0.68 0 0 Z " fill="#1B1B1B" transform="translate(856,514)"/>
<path d="M0 0 C0.99 1.32 1.98 2.64 3 4 C2.01 4.495 2.01 4.495 1 5 C0.67 5.66 0.34 6.32 0 7 C-0.66 5.02 -1.32 3.04 -2 1 C-1.34 0.67 -0.68 0.34 0 0 Z " fill="#2F2F2E" transform="translate(748,516)"/>
<path d="M0 0 C6.0546875 -0.1953125 6.0546875 -0.1953125 8 0 C8.66 0.66 9.32 1.32 10 2 C9.34 2 8.68 2 8 2 C7.67 2.66 7.34 3.32 7 4 C4.69 3.01 2.38 2.02 0 1 C0 0.67 0 0.34 0 0 Z " fill="#616160" transform="translate(765,510)"/>
<path d="M0 0 C0.99 0 1.98 0 3 0 C2.34 2.97 1.68 5.94 1 9 C0.10446748 6.31340243 -0.55900361 3.79297711 -1 1 C-0.67 0.67 -0.34 0.34 0 0 Z " fill="#646463" transform="translate(688,510)"/>
<path d="M0 0 C1.98 0.495 1.98 0.495 4 1 C3.67 1.99 3.34 2.98 3 4 C1.68 4 0.36 4 -1 4 C-0.67 2.68 -0.34 1.36 0 0 Z " fill="#383F71" transform="translate(530,462)"/>
</svg>
